<?xml version="1.0" encoding="UTF-8" standalone="no"?><svg xmlns="http://www.w3.org/2000/svg" xmlns:xlink="http://www.w3.org/1999/xlink" contentScriptType="application/ecmascript" contentStyleType="text/css" height="1208px" preserveAspectRatio="none" style="width:2466px;height:1208px;background:#FFFFFF;" version="1.1" viewBox="0 0 2466 1208" width="2466px" zoomAndPan="magnify"><defs><filter height="300%" id="f5bc26q8uxcqp" width="300%" x="-1" y="-1"><feGaussianBlur result="blurOut" stdDeviation="2.0"/><feColorMatrix in="blurOut" result="blurOut2" type="matrix" values="0 0 0 0 0 0 0 0 0 0 0 0 0 0 0 0 0 0 .4 0"/><feOffset dx="4.0" dy="4.0" in="blurOut2" result="blurOut3"/><feBlend in="SourceGraphic" in2="blurOut3" mode="normal"/></filter></defs><g><!--MD5=[e98ebe3490bbb2ea6f5530794af2bc99]
cluster src_b874d07--><polygon fill="#FFFFFF" filter="url(#f5bc26q8uxcqp)" points="16,6,45,6,52,28.2969,2449,28.2969,2449,1201,16,1201,16,6" style="stroke:#000000;stroke-width:1.5;"/><line style="stroke:#000000;stroke-width:1.5;" x1="16" x2="52" y1="28.2969" y2="28.2969"/><text fill="#000000" font-family="sans-serif" font-size="14" font-weight="bold" lengthAdjust="spacing" textLength="23" x="20" y="20.9951">src</text><!--MD5=[8927f6c5fcf40c5a5170bca72655f678]
cluster event_bus_b179faad--><polygon fill="#FFFFFF" filter="url(#f5bc26q8uxcqp)" points="1606,49,1692,49,1699,71.2969,2396,71.2969,2396,492.5,1606,492.5,1606,49" style="stroke:#000000;stroke-width:1.5;"/><line style="stroke:#000000;stroke-width:1.5;" x1="1606" x2="1699" y1="71.2969" y2="71.2969"/><text fill="#000000" font-family="sans-serif" font-size="14" font-weight="bold" lengthAdjust="spacing" textLength="80" x="1610" y="63.9951">event-bus</text><!--MD5=[cd1db981e4faab6247ccad63fb80a337]
cluster execute_6909d7--><polygon fill="#FFFFFF" filter="url(#f5bc26q8uxcqp)" points="679,355,749,355,756,377.2969,1582,377.2969,1582,716,679,716,679,355" style="stroke:#000000;stroke-width:1.5;"/><line style="stroke:#000000;stroke-width:1.5;" x1="679" x2="756" y1="377.2969" y2="377.2969"/><text fill="#000000" font-family="sans-serif" font-size="14" font-weight="bold" lengthAdjust="spacing" textLength="64" x="683" y="369.9951">execute</text><!--MD5=[6bad60fbfaf29a8bee14e842c70f9403]
cluster life_cycle_3f5aa653--><polygon fill="#FFFFFF" filter="url(#f5bc26q8uxcqp)" points="191,565.5,269,565.5,276,587.7969,655,587.7969,655,978,191,978,191,565.5" style="stroke:#000000;stroke-width:1.5;"/><line style="stroke:#000000;stroke-width:1.5;" x1="191" x2="276" y1="587.7969" y2="587.7969"/><text fill="#000000" font-family="sans-serif" font-size="14" font-weight="bold" lengthAdjust="spacing" textLength="72" x="195" y="580.4951">life-cycle</text><!--MD5=[f0be028c2bb5c2571d7462f06fd59970]
class life_cycle_direction_d6caefff--><rect codeLine="2" fill="#FEFECE" filter="url(#f5bc26q8uxcqp)" height="73.6458" id="life_cycle_direction_d6caefff" style="stroke:#A80036;stroke-width:1.5;" width="139" x="32.5" y="824"/><ellipse cx="47.5" cy="840" fill="#EB937F" rx="11" ry="11" style="stroke:#A80036;stroke-width:1.0;"/><path d="M51.625,846.5 L43.8906,846.5 L43.8906,833.5 L51.625,833.5 L51.625,835.7656 L46.3438,835.7656 L46.3438,838.5 L51.125,838.5 L51.125,840.7656 L46.3438,840.7656 L46.3438,844.2344 L51.625,844.2344 L51.625,846.5 Z " fill="#000000"/><text fill="#000000" font-family="sans-serif" font-size="12" lengthAdjust="spacing" textLength="107" x="61.5" y="844.1543">LifeCycleDirection</text><line style="stroke:#A80036;stroke-width:1.5;" x1="33.5" x2="170.5" y1="856" y2="856"/><text fill="#000000" font-family="sans-serif" font-size="11" lengthAdjust="spacing" textLength="104" x="38.5" y="870.225">CREATE = 'create'</text><text fill="#000000" font-family="sans-serif" font-size="11" lengthAdjust="spacing" textLength="119" x="38.5" y="883.0478">DESTROY = 'destroy'</text><line style="stroke:#A80036;stroke-width:1.5;" x1="33.5" x2="170.5" y1="889.6458" y2="889.6458"/><!--MD5=[80f5ea28014179df447d8c1222e0b7e6]
class app_flow_d6caefff--><rect codeLine="6" fill="#FEFECE" filter="url(#f5bc26q8uxcqp)" height="163.4059" id="app_flow_d6caefff" style="stroke:#A80036;stroke-width:1.5;" width="333" x="144.5" y="1022"/><ellipse cx="281.25" cy="1038" fill="#ADD1B2" rx="11" ry="11" style="stroke:#A80036;stroke-width:1.0;"/><path d="M283.7344,1043.875 Q283.1563,1044.1875 282.5156,1044.3438 Q281.875,1044.5 281.1719,1044.5 Q278.6563,1044.5 277.3281,1042.8281 Q276.0156,1041.1563 276.0156,1038 Q276.0156,1034.8438 277.3281,1033.1719 Q278.6563,1031.5 281.1719,1031.5 Q281.875,1031.5 282.5156,1031.6563 Q283.1719,1031.8125 283.7344,1032.125 L283.7344,1034.9219 Q283.0938,1034.3438 282.5,1034.0781 Q281.9063,1033.8125 281.2813,1033.8125 Q279.9375,1033.8125 279.25,1034.875 Q278.5625,1035.9219 278.5625,1038 Q278.5625,1040.0781 279.25,1041.1406 Q279.9375,1042.1875 281.2813,1042.1875 Q281.9063,1042.1875 282.5,1041.9219 Q283.0938,1041.6563 283.7344,1041.0781 L283.7344,1043.875 Z " fill="#000000"/><text fill="#000000" font-family="sans-serif" font-size="12" lengthAdjust="spacing" textLength="51" x="301.75" y="1042.1543">AppFlow</text><line style="stroke:#A80036;stroke-width:1.5;" x1="145.5" x2="476.5" y1="1054" y2="1054"/><polygon fill="none" points="155.5,1060,159.5,1064,155.5,1068,151.5,1064" style="stroke:#B38D22;stroke-width:1.0;"/><text fill="#000000" font-family="sans-serif" font-size="11" lengthAdjust="spacing" textLength="151" x="164.5" y="1068.225">_lifeCycleList: LifeCycleList</text><polygon fill="none" points="155.5,1072.8229,159.5,1076.8229,155.5,1080.8229,151.5,1076.8229" style="stroke:#B38D22;stroke-width:1.0;"/><text fill="#000000" font-family="sans-serif" font-size="11" lengthAdjust="spacing" textLength="230" x="164.5" y="1081.0478">_topLevelReversedFlowList: LifeCycleList</text><ellipse cx="155.5" cy="1090.6458" rx="3" ry="3" style="stroke:#038048;stroke-width:1.0;fill:none;"/><text fill="#000000" font-family="sans-serif" font-size="11" lengthAdjust="spacing" textLength="132" x="164.5" y="1093.8707">create: Promise&lt;void&gt;</text><ellipse cx="155.5" cy="1103.4686" rx="3" ry="3" style="stroke:#038048;stroke-width:1.0;fill:none;"/><text fill="#000000" font-family="sans-serif" font-size="11" lengthAdjust="spacing" textLength="139" x="164.5" y="1106.6936">destroy: Promise&lt;void&gt;</text><line style="stroke:#A80036;stroke-width:1.5;" x1="145.5" x2="476.5" y1="1113.2915" y2="1113.2915"/><polygon fill="#FFFF44" points="155.5,1119.2915,159.5,1123.2915,155.5,1127.2915,151.5,1123.2915" style="stroke:#B38D22;stroke-width:1.0;"/><text fill="#000000" font-family="sans-serif" font-size="11" lengthAdjust="spacing" textLength="258" x="164.5" y="1127.5165">_deepExecFlowList(lifeCycleList: LifeCycleList,</text><text fill="#000000" font-family="sans-serif" font-size="11" lengthAdjust="spacing" textLength="303" x="168.5" y="1140.3393">createOrDestroy: LifeCycleDirection): Promise&lt;void&gt;</text><polygon fill="#FFFF44" points="155.5,1144.9373,159.5,1148.9373,155.5,1152.9373,151.5,1148.9373" style="stroke:#B38D22;stroke-width:1.0;"/><text fill="#000000" font-family="sans-serif" font-size="11" lengthAdjust="spacing" textLength="246" x="164.5" y="1153.1622">_execSyncFlowList(lifeCycleList: LifeCycle[],</text><text fill="#000000" font-family="sans-serif" font-size="11" lengthAdjust="spacing" textLength="303" x="168.5" y="1165.9851">createOrDestroy: LifeCycleDirection): Promise&lt;void&gt;</text><text fill="#000000" font-family="sans-serif" font-size="11" lengthAdjust="spacing" textLength="187" x="164.5" y="1178.808">constructor(...args: LifeCycleList)</text><!--MD5=[58b05fac9e115f40481c7b91cf1cc5aa]
class event_bus_type_e4eda33b--><rect codeLine="16" fill="#FEFECE" filter="url(#f5bc26q8uxcqp)" height="60.8229" id="event_bus_type_e4eda33b" style="stroke:#A80036;stroke-width:1.5;" width="118" x="1622" y="84"/><ellipse cx="1637" cy="100" fill="#EB937F" rx="11" ry="11" style="stroke:#A80036;stroke-width:1.0;"/><path d="M1641.125,106.5 L1633.3906,106.5 L1633.3906,93.5 L1641.125,93.5 L1641.125,95.7656 L1635.8438,95.7656 L1635.8438,98.5 L1640.625,98.5 L1640.625,100.7656 L1635.8438,100.7656 L1635.8438,104.2344 L1641.125,104.2344 L1641.125,106.5 Z " fill="#000000"/><text fill="#000000" font-family="sans-serif" font-size="12" lengthAdjust="spacing" textLength="86" x="1651" y="104.1543">EventBusType</text><line style="stroke:#A80036;stroke-width:1.5;" x1="1623" x2="1739" y1="116" y2="116"/><text fill="#000000" font-family="sans-serif" font-size="11" lengthAdjust="spacing" textLength="104" x="1628" y="130.225">LOG = 'rx-bus.log'</text><line style="stroke:#A80036;stroke-width:1.5;" x1="1623" x2="1739" y1="136.8229" y2="136.8229"/><rect fill="#FEFECE" filter="url(#f5bc26q8uxcqp)" height="60.8906" style="stroke:#A80036;stroke-width:1.5;" width="285" x="1622.5" y="415.5"/><text fill="#000000" font-family="sans-serif" font-size="12" lengthAdjust="spacing" textLength="76" x="1727" y="428.6387">eventBusUtil</text><line style="stroke:#A80036;stroke-width:1.5;" x1="1623.5" x2="1906.5" y1="433.4688" y2="433.4688"/><ellipse cx="1633.5" cy="444.4688" fill="#84BE84" rx="3" ry="3" style="stroke:#038048;stroke-width:1.0;"/><text fill="#000000" font-family="sans-serif" font-size="10" lengthAdjust="spacing" textLength="259" x="1642.5" y="446.751">startEndEventWrapAndExecute(eventBus: EventBus,</text><text fill="#000000" font-family="sans-serif" font-size="10" lengthAdjust="spacing" textLength="81" x="1645.5" y="458.3916">message: string,</text><text fill="#000000" font-family="sans-serif" font-size="10" lengthAdjust="spacing" textLength="194" x="1645.5" y="470.0322">cb: () =&gt; Promise&lt;any&gt;): Promise&lt;T&gt;</text><!--MD5=[f2b74c312185cc40df9776a06f19b661]
class event_bus_2346de6e--><rect codeLine="22" fill="#FEFECE" filter="url(#f5bc26q8uxcqp)" height="124.9373" id="event_bus_2346de6e" style="stroke:#A80036;stroke-width:1.5;" width="478" x="1659" y="205"/><ellipse cx="1865.25" cy="221" fill="#ADD1B2" rx="11" ry="11" style="stroke:#A80036;stroke-width:1.0;"/><path d="M1867.7344,226.875 Q1867.1563,227.1875 1866.5156,227.3438 Q1865.875,227.5 1865.1719,227.5 Q1862.6563,227.5 1861.3281,225.8281 Q1860.0156,224.1563 1860.0156,221 Q1860.0156,217.8438 1861.3281,216.1719 Q1862.6563,214.5 1865.1719,214.5 Q1865.875,214.5 1866.5156,214.6563 Q1867.1719,214.8125 1867.7344,215.125 L1867.7344,217.9219 Q1867.0938,217.3438 1866.5,217.0781 Q1865.9063,216.8125 1865.2813,216.8125 Q1863.9375,216.8125 1863.25,217.875 Q1862.5625,218.9219 1862.5625,221 Q1862.5625,223.0781 1863.25,224.1406 Q1863.9375,225.1875 1865.2813,225.1875 Q1865.9063,225.1875 1866.5,224.9219 Q1867.0938,224.6563 1867.7344,224.0781 L1867.7344,226.875 Z " fill="#000000"/><text fill="#000000" font-family="sans-serif" font-size="12" lengthAdjust="spacing" textLength="57" x="1885.75" y="225.1543">EventBus</text><line style="stroke:#A80036;stroke-width:1.5;" x1="1660" x2="2136" y1="237" y2="237"/><polygon fill="none" points="1670,243,1674,247,1670,251,1666,247" style="stroke:#B38D22;stroke-width:1.0;"/><text fill="#000000" font-family="sans-serif" font-size="11" lengthAdjust="spacing" textLength="46" x="1679" y="251.225">_subject</text><line style="stroke:#A80036;stroke-width:1.5;" x1="1660" x2="2136" y1="257.8229" y2="257.8229"/><polygon fill="#FFFF44" points="1670,263.8229,1674,267.8229,1670,271.8229,1666,267.8229" style="stroke:#B38D22;stroke-width:1.0;"/><text fill="#000000" font-family="sans-serif" font-size="11" lengthAdjust="spacing" textLength="452" x="1679" y="272.0478">_rxjsFilteredSubject(type?: EventBusType): Observable&lt;EventBusPayload&lt;T&gt;&gt;</text><ellipse cx="1670" cy="281.6458" fill="#84BE84" rx="3" ry="3" style="stroke:#038048;stroke-width:1.0;"/><text fill="#000000" font-family="sans-serif" font-size="11" lengthAdjust="spacing" textLength="147" x="1679" y="284.8707">emit(type: EventBusType,</text><text fill="#000000" font-family="sans-serif" font-size="11" lengthAdjust="spacing" textLength="102" x="1683" y="297.6936">message: T): void</text><ellipse cx="1670" cy="307.2915" fill="#84BE84" rx="3" ry="3" style="stroke:#038048;stroke-width:1.0;"/><text fill="#000000" font-family="sans-serif" font-size="11" lengthAdjust="spacing" textLength="323" x="1679" y="310.5165">subscribe(cb: (message: EventBusPayload&lt;T&gt;) =&gt; void,</text><text fill="#000000" font-family="sans-serif" font-size="11" lengthAdjust="spacing" textLength="218" x="1683" y="323.3393">type?: EventBusType): Unsubscribable</text><!--MD5=[79d7273cf0b8a71645ebfe6070b201b6]
class subscribable_33c09d2c--><rect codeLine="28" fill="#FEFECE" filter="url(#f5bc26q8uxcqp)" height="60.8229" id="subscribable_33c09d2c" style="stroke:#A80036;stroke-width:1.5;" width="443" x="1775.5" y="84"/><ellipse cx="1953.75" cy="100" fill="#B4A7E5" rx="11" ry="11" style="stroke:#A80036;stroke-width:1.0;"/><path d="M1950.1719,95.7656 L1950.1719,93.5 L1957.5625,93.5 L1957.5625,95.7656 L1955.0938,95.7656 L1955.0938,104.2344 L1957.5625,104.2344 L1957.5625,106.5 L1950.1719,106.5 L1950.1719,104.2344 L1952.6406,104.2344 L1952.6406,95.7656 L1950.1719,95.7656 Z " fill="#000000"/><text fill="#000000" font-family="sans-serif" font-size="12" font-style="italic" lengthAdjust="spacing" textLength="78" x="1974.25" y="104.1543">Subscribable</text><line style="stroke:#A80036;stroke-width:1.5;" x1="1776.5" x2="2217.5" y1="116" y2="116"/><line style="stroke:#A80036;stroke-width:1.5;" x1="1776.5" x2="2217.5" y1="124" y2="124"/><ellipse cx="1786.5" cy="135" fill="#84BE84" rx="3" ry="3" style="stroke:#038048;stroke-width:1.0;"/><text fill="#000000" font-family="sans-serif" font-size="11" lengthAdjust="spacing" textLength="417" x="1795.5" y="138.225">subscribe(cb: (message: EventBusPayload&lt;T&gt;) =&gt; void): Unsubscribable</text><!--MD5=[150124a4c96537644e8f4492b0cef564]
class unsubscribable_53831e77--><rect codeLine="31" fill="#FEFECE" filter="url(#f5bc26q8uxcqp)" height="60.8229" id="unsubscribable_53831e77" style="stroke:#A80036;stroke-width:1.5;" width="126" x="2254" y="84"/><ellipse cx="2269.45" cy="100" fill="#B4A7E5" rx="11" ry="11" style="stroke:#A80036;stroke-width:1.0;"/><path d="M2265.8719,95.7656 L2265.8719,93.5 L2273.2625,93.5 L2273.2625,95.7656 L2270.7938,95.7656 L2270.7938,104.2344 L2273.2625,104.2344 L2273.2625,106.5 L2265.8719,106.5 L2265.8719,104.2344 L2268.3406,104.2344 L2268.3406,95.7656 L2265.8719,95.7656 Z " fill="#000000"/><text fill="#000000" font-family="sans-serif" font-size="12" font-style="italic" lengthAdjust="spacing" textLength="93" x="2283.55" y="104.1543">Unsubscribable</text><line style="stroke:#A80036;stroke-width:1.5;" x1="2255" x2="2379" y1="116" y2="116"/><ellipse cx="2265" cy="127" rx="3" ry="3" style="stroke:#038048;stroke-width:1.0;fill:none;"/><text fill="#000000" font-family="sans-serif" font-size="11" lengthAdjust="spacing" textLength="100" x="2274" y="130.225">unsubscribe: void</text><line style="stroke:#A80036;stroke-width:1.5;" x1="2255" x2="2379" y1="136.8229" y2="136.8229"/><!--MD5=[e69a52ffa36d3b0099b2f3b8b8aa2157]
class executable_94895fe1--><rect codeLine="36" fill="#FEFECE" filter="url(#f5bc26q8uxcqp)" height="60.8229" id="executable_94895fe1" style="stroke:#A80036;stroke-width:1.5;" width="150" x="1171" y="415.5"/><ellipse cx="1208.95" cy="431.5" fill="#B4A7E5" rx="11" ry="11" style="stroke:#A80036;stroke-width:1.0;"/><path d="M1205.3719,427.2656 L1205.3719,425 L1212.7625,425 L1212.7625,427.2656 L1210.2938,427.2656 L1210.2938,435.7344 L1212.7625,435.7344 L1212.7625,438 L1205.3719,438 L1205.3719,435.7344 L1207.8406,435.7344 L1207.8406,427.2656 L1205.3719,427.2656 Z " fill="#000000"/><text fill="#000000" font-family="sans-serif" font-size="12" font-style="italic" lengthAdjust="spacing" textLength="67" x="1228.05" y="435.6543">Executable</text><line style="stroke:#A80036;stroke-width:1.5;" x1="1172" x2="1320" y1="447.5" y2="447.5"/><ellipse cx="1182" cy="458.5" rx="3" ry="3" style="stroke:#038048;stroke-width:1.0;fill:none;"/><text fill="#000000" font-family="sans-serif" font-size="11" lengthAdjust="spacing" textLength="124" x="1191" y="461.725">execute: Promise&lt;T&gt;</text><line style="stroke:#A80036;stroke-width:1.5;" x1="1172" x2="1320" y1="468.3229" y2="468.3229"/><!--MD5=[9ed5dfd788af62d8f19cbb509f7f203c]
class execute_simple_ea430bad--><rect codeLine="39" fill="#FEFECE" filter="url(#f5bc26q8uxcqp)" height="112.1144" id="execute_simple_ea430bad" style="stroke:#A80036;stroke-width:1.5;" width="418" x="1148" y="575"/><ellipse cx="1307.75" cy="591" fill="#ADD1B2" rx="11" ry="11" style="stroke:#A80036;stroke-width:1.0;"/><path d="M1310.2344,596.875 Q1309.6563,597.1875 1309.0156,597.3438 Q1308.375,597.5 1307.6719,597.5 Q1305.1563,597.5 1303.8281,595.8281 Q1302.5156,594.1563 1302.5156,591 Q1302.5156,587.8438 1303.8281,586.1719 Q1305.1563,584.5 1307.6719,584.5 Q1308.375,584.5 1309.0156,584.6563 Q1309.6719,584.8125 1310.2344,585.125 L1310.2344,587.9219 Q1309.5938,587.3438 1309,587.0781 Q1308.4063,586.8125 1307.7813,586.8125 Q1306.4375,586.8125 1305.75,587.875 Q1305.0625,588.9219 1305.0625,591 Q1305.0625,593.0781 1305.75,594.1406 Q1306.4375,595.1875 1307.7813,595.1875 Q1308.4063,595.1875 1309,594.9219 Q1309.5938,594.6563 1310.2344,594.0781 L1310.2344,596.875 Z " fill="#000000"/><text fill="#000000" font-family="sans-serif" font-size="12" lengthAdjust="spacing" textLength="90" x="1328.25" y="595.1543">ExecuteSimple</text><line style="stroke:#A80036;stroke-width:1.5;" x1="1149" x2="1565" y1="607" y2="607"/><polygon fill="none" points="1159,613,1163,617,1159,621,1155,617" style="stroke:#B38D22;stroke-width:1.0;"/><text fill="#000000" font-family="sans-serif" font-size="11" lengthAdjust="spacing" textLength="59" x="1168" y="621.225">_eventBus</text><ellipse cx="1159" cy="630.8229" rx="3" ry="3" style="stroke:#038048;stroke-width:1.0;fill:none;"/><text fill="#000000" font-family="sans-serif" font-size="11" lengthAdjust="spacing" textLength="124" x="1168" y="634.0478">execute: Promise&lt;T&gt;</text><line style="stroke:#A80036;stroke-width:1.5;" x1="1149" x2="1565" y1="640.6458" y2="640.6458"/><text fill="#000000" font-family="sans-serif" font-size="11" lengthAdjust="spacing" textLength="262" x="1168" y="654.8707">constructor(protected readonly _name: string,</text><text fill="#000000" font-family="sans-serif" font-size="11" lengthAdjust="spacing" textLength="246" x="1172" y="667.6936">protected readonly _fn: () =&gt; Promise&lt;T&gt;)</text><ellipse cx="1159" cy="677.2915" fill="#84BE84" rx="3" ry="3" style="stroke:#038048;stroke-width:1.0;"/><text fill="#000000" font-family="sans-serif" font-size="11" lengthAdjust="spacing" textLength="392" x="1168" y="680.5165">subscribe(cb: (message: EventBusPayload) =&gt; void): Unsubscribable</text><!--MD5=[06b483be0fb7d6ff91b5a93d28e4b79f]
class execute_with_hooks_fa3c885c--><rect codeLine="45" fill="#FEFECE" filter="url(#f5bc26q8uxcqp)" height="137.7601" id="execute_with_hooks_fa3c885c" style="stroke:#A80036;stroke-width:1.5;" width="418" x="695" y="562"/><ellipse cx="843.25" cy="578" fill="#ADD1B2" rx="11" ry="11" style="stroke:#A80036;stroke-width:1.0;"/><path d="M845.7344,583.875 Q845.1563,584.1875 844.5156,584.3438 Q843.875,584.5 843.1719,584.5 Q840.6563,584.5 839.3281,582.8281 Q838.0156,581.1563 838.0156,578 Q838.0156,574.8438 839.3281,573.1719 Q840.6563,571.5 843.1719,571.5 Q843.875,571.5 844.5156,571.6563 Q845.1719,571.8125 845.7344,572.125 L845.7344,574.9219 Q845.0938,574.3438 844.5,574.0781 Q843.9063,573.8125 843.2813,573.8125 Q841.9375,573.8125 841.25,574.875 Q840.5625,575.9219 840.5625,578 Q840.5625,580.0781 841.25,581.1406 Q841.9375,582.1875 843.2813,582.1875 Q843.9063,582.1875 844.5,581.9219 Q845.0938,581.6563 845.7344,581.0781 L845.7344,583.875 Z " fill="#000000"/><text fill="#000000" font-family="sans-serif" font-size="12" lengthAdjust="spacing" textLength="113" x="863.75" y="582.1543">ExecuteWithHooks</text><line style="stroke:#A80036;stroke-width:1.5;" x1="696" x2="1112" y1="594" y2="594"/><polygon fill="none" points="706,600,710,604,706,608,702,604" style="stroke:#B38D22;stroke-width:1.0;"/><text fill="#000000" font-family="sans-serif" font-size="11" lengthAdjust="spacing" textLength="59" x="715" y="608.225">_eventBus</text><polygon fill="none" points="706,612.8229,710,616.8229,706,620.8229,702,616.8229" style="stroke:#B38D22;stroke-width:1.0;"/><text fill="#000000" font-family="sans-serif" font-size="11" lengthAdjust="spacing" textLength="43" x="715" y="621.0478">_postFn</text><polygon fill="none" points="706,625.6458,710,629.6458,706,633.6458,702,629.6458" style="stroke:#B38D22;stroke-width:1.0;"/><text fill="#000000" font-family="sans-serif" font-size="11" lengthAdjust="spacing" textLength="38" x="715" y="633.8707">_preFn</text><ellipse cx="706" cy="643.4686" rx="3" ry="3" style="stroke:#038048;stroke-width:1.0;fill:none;"/><text fill="#000000" font-family="sans-serif" font-size="11" lengthAdjust="spacing" textLength="124" x="715" y="646.6936">execute: Promise&lt;T&gt;</text><line style="stroke:#A80036;stroke-width:1.5;" x1="696" x2="1112" y1="653.2915" y2="653.2915"/><text fill="#000000" font-family="sans-serif" font-size="11" lengthAdjust="spacing" textLength="208" x="715" y="667.5165">constructor(protected _name: string,</text><text fill="#000000" font-family="sans-serif" font-size="11" lengthAdjust="spacing" textLength="192" x="719" y="680.3393">protected _fn: () =&gt; Promise&lt;T&gt;)</text><ellipse cx="706" cy="689.9373" fill="#84BE84" rx="3" ry="3" style="stroke:#038048;stroke-width:1.0;"/><text fill="#000000" font-family="sans-serif" font-size="11" lengthAdjust="spacing" textLength="392" x="715" y="693.1622">subscribe(cb: (message: EventBusPayload) =&gt; void): Unsubscribable</text><!--MD5=[21591a02f0b81d910442373075e1b631]
class function_array_b669ac47--><rect codeLine="53" fill="#FEFECE" filter="url(#f5bc26q8uxcqp)" height="112.1144" id="function_array_b669ac47" style="stroke:#A80036;stroke-width:1.5;" width="242" x="783" y="390"/><ellipse cx="857.25" cy="406" fill="#ADD1B2" rx="11" ry="11" style="stroke:#A80036;stroke-width:1.0;"/><path d="M859.7344,411.875 Q859.1563,412.1875 858.5156,412.3438 Q857.875,412.5 857.1719,412.5 Q854.6563,412.5 853.3281,410.8281 Q852.0156,409.1563 852.0156,406 Q852.0156,402.8438 853.3281,401.1719 Q854.6563,399.5 857.1719,399.5 Q857.875,399.5 858.5156,399.6563 Q859.1719,399.8125 859.7344,400.125 L859.7344,402.9219 Q859.0938,402.3438 858.5,402.0781 Q857.9063,401.8125 857.2813,401.8125 Q855.9375,401.8125 855.25,402.875 Q854.5625,403.9219 854.5625,406 Q854.5625,408.0781 855.25,409.1406 Q855.9375,410.1875 857.2813,410.1875 Q857.9063,410.1875 858.5,409.9219 Q859.0938,409.6563 859.7344,409.0781 L859.7344,411.875 Z " fill="#000000"/><text fill="#000000" font-family="sans-serif" font-size="12" lengthAdjust="spacing" textLength="85" x="877.75" y="410.1543">FunctionArray</text><line style="stroke:#A80036;stroke-width:1.5;" x1="784" x2="1024" y1="422" y2="422"/><ellipse cx="794" cy="433" rx="3" ry="3" style="stroke:#038048;stroke-width:1.0;fill:none;"/><text fill="#000000" font-family="sans-serif" font-size="11" lengthAdjust="spacing" textLength="93" x="803" y="436.225">HasFns: boolean</text><polygon fill="none" points="794,440.8229,798,444.8229,794,448.8229,790,444.8229" style="stroke:#B38D22;stroke-width:1.0;"/><text fill="#000000" font-family="sans-serif" font-size="11" lengthAdjust="spacing" textLength="125" x="803" y="449.0478">_fns: CallBackFn&lt;T&gt;[]</text><ellipse cx="794" cy="458.6458" rx="3" ry="3" style="stroke:#038048;stroke-width:1.0;fill:none;"/><text fill="#000000" font-family="sans-serif" font-size="11" lengthAdjust="spacing" textLength="128" x="803" y="461.8707">execAll: Promise&lt;T[]&gt;</text><line style="stroke:#A80036;stroke-width:1.5;" x1="784" x2="1024" y1="468.4686" y2="468.4686"/><ellipse cx="794" cy="479.4686" fill="#84BE84" rx="3" ry="3" style="stroke:#038048;stroke-width:1.0;"/><text fill="#000000" font-family="sans-serif" font-size="11" lengthAdjust="spacing" textLength="189" x="803" y="482.6936">append(cb: CallBackFn&lt;T&gt;): void</text><ellipse cx="794" cy="492.2915" fill="#84BE84" rx="3" ry="3" style="stroke:#038048;stroke-width:1.0;"/><text fill="#000000" font-family="sans-serif" font-size="11" lengthAdjust="spacing" textLength="216" x="803" y="495.5165">constructor(fns: CallBackFn&lt;T&gt;[] = [])</text><!--MD5=[9e1bc6772e22d0196e05ba3ac85048fc]
class creatable_6eee977e--><rect codeLine="62" fill="#FEFECE" filter="url(#f5bc26q8uxcqp)" height="60.8229" id="creatable_6eee977e" style="stroke:#A80036;stroke-width:1.5;" width="141" x="252.5" y="600.5"/><ellipse cx="290.9" cy="616.5" fill="#B4A7E5" rx="11" ry="11" style="stroke:#A80036;stroke-width:1.0;"/><path d="M287.3219,612.2656 L287.3219,610 L294.7125,610 L294.7125,612.2656 L292.2438,612.2656 L292.2438,620.7344 L294.7125,620.7344 L294.7125,623 L287.3219,623 L287.3219,620.7344 L289.7906,620.7344 L289.7906,612.2656 L287.3219,612.2656 Z " fill="#000000"/><text fill="#000000" font-family="sans-serif" font-size="12" font-style="italic" lengthAdjust="spacing" textLength="57" x="310.1" y="620.6543">Creatable</text><line style="stroke:#A80036;stroke-width:1.5;" x1="253.5" x2="392.5" y1="632.5" y2="632.5"/><ellipse cx="263.5" cy="643.5" rx="3" ry="3" style="stroke:#038048;stroke-width:1.0;fill:none;"/><text fill="#000000" font-family="sans-serif" font-size="11" lengthAdjust="spacing" textLength="115" x="272.5" y="646.725">create: Promise&lt;T&gt;</text><line style="stroke:#A80036;stroke-width:1.5;" x1="253.5" x2="392.5" y1="653.3229" y2="653.3229"/><!--MD5=[04ea6fe7b11c7cdd847de84173afb80b]
class destructible_14789501--><rect codeLine="65" fill="#FEFECE" filter="url(#f5bc26q8uxcqp)" height="60.8229" id="destructible_14789501" style="stroke:#A80036;stroke-width:1.5;" width="148" x="429" y="600.5"/><ellipse cx="463.35" cy="616.5" fill="#B4A7E5" rx="11" ry="11" style="stroke:#A80036;stroke-width:1.0;"/><path d="M459.7719,612.2656 L459.7719,610 L467.1625,610 L467.1625,612.2656 L464.6938,612.2656 L464.6938,620.7344 L467.1625,620.7344 L467.1625,623 L459.7719,623 L459.7719,620.7344 L462.2406,620.7344 L462.2406,612.2656 L459.7719,612.2656 Z " fill="#000000"/><text fill="#000000" font-family="sans-serif" font-size="12" font-style="italic" lengthAdjust="spacing" textLength="73" x="481.65" y="620.6543">Destructible</text><line style="stroke:#A80036;stroke-width:1.5;" x1="430" x2="576" y1="632.5" y2="632.5"/><ellipse cx="440" cy="643.5" rx="3" ry="3" style="stroke:#038048;stroke-width:1.0;fill:none;"/><text fill="#000000" font-family="sans-serif" font-size="11" lengthAdjust="spacing" textLength="122" x="449" y="646.725">destroy: Promise&lt;T&gt;</text><line style="stroke:#A80036;stroke-width:1.5;" x1="430" x2="576" y1="653.3229" y2="653.3229"/><!--MD5=[47b827f01b103994b42f63ea610d0a73]
class life_cycle_ee3c432e--><rect codeLine="68" fill="#FEFECE" filter="url(#f5bc26q8uxcqp)" height="201.8745" id="life_cycle_ee3c432e" style="stroke:#A80036;stroke-width:1.5;" width="432" x="207" y="760"/><ellipse cx="392.25" cy="776" fill="#A9DCDF" rx="11" ry="11" style="stroke:#A80036;stroke-width:1.0;"/><path d="M392.375,771.3125 L391.2188,776.6406 L393.5313,776.6406 L392.375,771.3125 Z M390.875,768.75 L393.875,768.75 L397.2188,781.75 L394.7656,781.75 L394,778.75 L390.7188,778.75 L389.9688,781.75 L387.5313,781.75 L390.875,768.75 Z " fill="#000000"/><text fill="#000000" font-family="sans-serif" font-size="12" font-style="italic" lengthAdjust="spacing" textLength="53" x="412.75" y="780.1543">LifeCycle</text><line style="stroke:#A80036;stroke-width:1.5;" x1="208" x2="638" y1="792" y2="792"/><polygon fill="none" points="218,798,222,802,218,806,214,802" style="stroke:#B38D22;stroke-width:1.0;"/><text fill="#000000" font-family="sans-serif" font-size="11" lengthAdjust="spacing" textLength="215" x="227" y="806.225">_createExec: LifeCycleExecutable&lt;T&gt;</text><polygon fill="none" points="218,810.8229,222,814.8229,218,818.8229,214,814.8229" style="stroke:#B38D22;stroke-width:1.0;"/><text fill="#000000" font-family="sans-serif" font-size="11" font-style="italic" lengthAdjust="spacing" textLength="134" x="227" y="819.0478">_createFn: Promise&lt;T&gt;</text><polygon fill="none" points="218,823.6458,222,827.6458,218,831.6458,214,827.6458" style="stroke:#B38D22;stroke-width:1.0;"/><text fill="#000000" font-family="sans-serif" font-size="11" lengthAdjust="spacing" textLength="222" x="227" y="831.8707">_destroyExec: LifeCycleExecutable&lt;T&gt;</text><polygon fill="none" points="218,836.4686,222,840.4686,218,844.4686,214,840.4686" style="stroke:#B38D22;stroke-width:1.0;"/><text fill="#000000" font-family="sans-serif" font-size="11" font-style="italic" lengthAdjust="spacing" textLength="141" x="227" y="844.6936">_destroyFn: Promise&lt;T&gt;</text><polygon fill="none" points="218,849.2915,222,853.2915,218,857.2915,214,853.2915" style="stroke:#B38D22;stroke-width:1.0;"/><text fill="#000000" font-family="sans-serif" font-size="11" lengthAdjust="spacing" textLength="59" x="227" y="857.5165">_eventBus</text><ellipse cx="218" cy="867.1144" rx="3" ry="3" style="stroke:#038048;stroke-width:1.0;fill:none;"/><text fill="#000000" font-family="sans-serif" font-size="11" lengthAdjust="spacing" textLength="115" x="227" y="870.3393">create: Promise&lt;T&gt;</text><ellipse cx="218" cy="879.9373" rx="3" ry="3" style="stroke:#038048;stroke-width:1.0;fill:none;"/><text fill="#000000" font-family="sans-serif" font-size="11" lengthAdjust="spacing" textLength="122" x="227" y="883.1622">destroy: Promise&lt;T&gt;</text><ellipse cx="218" cy="892.7601" rx="3" ry="3" style="stroke:#038048;stroke-width:1.0;fill:none;"/><text fill="#000000" font-family="sans-serif" font-size="11" lengthAdjust="spacing" textLength="72" x="227" y="895.9851">name: string</text><line style="stroke:#A80036;stroke-width:1.5;" x1="208" x2="638" y1="902.583" y2="902.583"/><polygon fill="#FFFF44" points="218,908.583,222,912.583,218,916.583,214,912.583" style="stroke:#B38D22;stroke-width:1.0;"/><text fill="#000000" font-family="sans-serif" font-size="11" lengthAdjust="spacing" textLength="144" x="227" y="916.808">constructor(name: string,</text><text fill="#000000" font-family="sans-serif" font-size="11" lengthAdjust="spacing" textLength="395" x="231" y="929.6308">createExec: ObjectType&lt;LifeCycleExecutable&lt;T&gt;&gt; = ExecuteSimple,</text><text fill="#000000" font-family="sans-serif" font-size="11" lengthAdjust="spacing" textLength="402" x="231" y="942.4537">destroyExec: ObjectType&lt;LifeCycleExecutable&lt;T&gt;&gt; = ExecuteSimple)</text><ellipse cx="218" cy="952.0516" fill="#84BE84" rx="3" ry="3" style="stroke:#038048;stroke-width:1.0;"/><text fill="#000000" font-family="sans-serif" font-size="11" lengthAdjust="spacing" textLength="392" x="227" y="955.2766">subscribe(cb: (message: EventBusPayload) =&gt; void): Unsubscribable</text><!--MD5=[9dd1d0236a4412d9615429e1290dd47c]
reverse link life_cycle_ee3c432e to app_flow_d6caefff--><path codeLine="82" d="M374.14,966.92 C365.58,985.31 356.78,1004.19 348.58,1021.8 " fill="none" id="life_cycle_ee3c432e-backto-app_flow_d6caefff" style="stroke:#A80036;stroke-width:1.0;"/><polygon fill="#A80036" points="376.31,962.25,368.895,968.7321,374.2065,966.786,376.1526,972.0976,376.31,962.25" style="stroke:#A80036;stroke-width:1.0;"/><!--MD5=[7f3f36bde22aa4248109dcad71559eb4]
reverse link life_cycle_direction_d6caefff to app_flow_d6caefff--><path codeLine="83" d="M128.39,902.52 C145.26,927.43 168.19,959.53 191,986 C201.33,997.99 212.7,1010.15 224.2,1021.87 " fill="none" id="life_cycle_direction_d6caefff-backto-app_flow_d6caefff" style="stroke:#A80036;stroke-width:1.0;"/><polygon fill="#A80036" points="125.52,898.27,127.2226,907.9706,128.31,902.4192,133.8613,903.5066,125.52,898.27" style="stroke:#A80036;stroke-width:1.0;"/><!--MD5=[35452bdacf2ba4f0a31dafb00e1bd1e6]
reverse link event_bus_2346de6e to event_bus_util_55c275a7--><path codeLine="84" d="M1848.41,334.31 C1827.45,362.13 1804.08,393.14 1787.43,415.24 " fill="none" id="event_bus_2346de6e-backto-event_bus_util_55c275a7" style="stroke:#A80036;stroke-width:1.0;"/><polygon fill="#A80036" points="1851.48,330.23,1842.8609,334.9955,1848.464,334.218,1849.2416,339.8211,1851.48,330.23" style="stroke:#A80036;stroke-width:1.0;"/><!--MD5=[8a61bdbafe81cda3bba64c50f93d37ab]
reverse link event_bus_type_e4eda33b to event_bus_util_55c275a7--><path codeLine="85" d="M1661.72,149.55 C1653.59,165.79 1645.09,185.83 1641,205 C1629.41,259.33 1618.78,279.08 1641,330 C1656.56,365.66 1689.23,395.21 1717.13,415.43 " fill="none" id="event_bus_type_e4eda33b-backto-event_bus_util_55c275a7" style="stroke:#A80036;stroke-width:1.0;"/><polygon fill="#A80036" points="1663.99,145.07,1656.3554,151.292,1661.7311,149.5306,1663.4925,154.9063,1663.99,145.07" style="stroke:#A80036;stroke-width:1.0;"/><!--MD5=[87f99a9e03771e2858a56c1e76db1a7b]
reverse link event_bus_type_e4eda33b to event_bus_2346de6e--><path codeLine="86" d="M1727.98,148.19 C1751.75,164.73 1781.4,185.37 1809.26,204.75 " fill="none" id="event_bus_type_e4eda33b-backto-event_bus_2346de6e" style="stroke:#A80036;stroke-width:1.0;"/><polygon fill="#A80036" points="1723.61,145.15,1728.707,153.5774,1727.7122,148.0087,1733.2809,147.0139,1723.61,145.15" style="stroke:#A80036;stroke-width:1.0;"/><!--MD5=[d5fa6e1f36d05a5f405ca2bae2edf664]
reverse link unsubscribable_53831e77 to event_bus_2346de6e--><path codeLine="87" d="M2249,140.29 C2244.6,141.89 2240.24,143.47 2236,145 C2181.91,164.57 2122.91,185.82 2069.57,204.98 " fill="none" id="unsubscribable_53831e77-backto-event_bus_2346de6e" style="stroke:#A80036;stroke-width:1.0;"/><polygon fill="#A80036" points="2253.78,138.55,2243.9561,137.8497,2249.0781,140.2507,2246.6772,145.3727,2253.78,138.55" style="stroke:#A80036;stroke-width:1.0;"/><!--MD5=[8470778883f6fcf0625faca76509733d]
reverse link subscribable_33c09d2c to event_bus_2346de6e--><path codeLine="88" d="M1966.46,162.09 C1957.59,175.61 1947.77,190.59 1938.4,204.88 " fill="none" id="subscribable_33c09d2c-backto-event_bus_2346de6e" style="stroke:#A80036;stroke-width:1.0;stroke-dasharray:7.0,7.0;"/><polygon fill="none" points="1960.62,158.22,1977.44,145.33,1972.33,165.9,1960.62,158.22" style="stroke:#A80036;stroke-width:1.0;"/><!--MD5=[17e9a863fd35ff2db93b517a1d611de4]
reverse link event_bus_2346de6e to execute_simple_ea430bad--><path codeLine="89" d="M1948.29,334.8 C1950.11,338.82 1951.7,342.89 1953,347 C1973.72,412.7 1996.3,448.42 1953,502 C1904.49,562.04 1717.74,595.22 1566.05,612.65 " fill="none" id="event_bus_2346de6e-backto-execute_simple_ea430bad" style="stroke:#A80036;stroke-width:1.0;"/><polygon fill="#A80036" points="1946.05,330.12,1946.3213,339.9651,1948.2058,334.6314,1953.5395,336.5159,1946.05,330.12" style="stroke:#A80036;stroke-width:1.0;"/><!--MD5=[666b2a9c76a6802696b22b60a78beb6e]
reverse link event_bus_type_e4eda33b to execute_simple_ea430bad--><path codeLine="90" d="M1745.27,141.34 C1749.55,142.68 1753.82,143.92 1758,145 C1850.13,168.84 2119.6,133.15 2182,205 C2218.43,246.95 2205.6,279.71 2182,330 C2131.19,438.29 2082.77,450.1 1975,502 C1846.91,563.68 1689.91,595.72 1566.21,612.32 " fill="none" id="event_bus_type_e4eda33b-backto-execute_simple_ea430bad" style="stroke:#A80036;stroke-width:1.0;"/><polygon fill="#A80036" points="1740.26,139.72,1747.587,146.3014,1745.0161,141.2625,1750.055,138.6917,1740.26,139.72" style="stroke:#A80036;stroke-width:1.0;"/><!--MD5=[5e2e016d4817ad517296e7f197079dc1]
reverse link event_bus_util_55c275a7 to execute_simple_ea430bad--><path codeLine="91" d="M1694.08,478.81 C1635.1,505.27 1549.77,543.54 1479.72,574.96 " fill="none" id="event_bus_util_55c275a7-backto-execute_simple_ea430bad" style="stroke:#A80036;stroke-width:1.0;"/><polygon fill="#A80036" points="1698.99,476.61,1689.1412,476.6415,1694.4275,478.6553,1692.4136,483.9415,1698.99,476.61" style="stroke:#A80036;stroke-width:1.0;"/><!--MD5=[4efe677919fc08574dfb1de295db5c97]
reverse link unsubscribable_53831e77 to execute_simple_ea430bad--><path codeLine="92" d="M2341.54,149.72 C2351.53,165.7 2361.92,185.48 2367,205 C2400.52,333.73 2427.79,411.83 2330,502 C2222.04,601.54 1818.32,625.07 1566.09,629.81 " fill="none" id="unsubscribable_53831e77-backto-execute_simple_ea430bad" style="stroke:#A80036;stroke-width:1.0;"/><polygon fill="#A80036" points="2338.74,145.31,2340.1887,155.0517,2341.4207,149.5307,2346.9418,150.7626,2338.74,145.31" style="stroke:#A80036;stroke-width:1.0;"/><!--MD5=[52e98fe26486fc737273f9076d75001f]
reverse link executable_94895fe1 to execute_simple_ea430bad--><path codeLine="93" d="M1274.5,493.98 C1289.44,518.62 1307.84,548.94 1323.46,574.71 " fill="none" id="executable_94895fe1-backto-execute_simple_ea430bad" style="stroke:#A80036;stroke-width:1.0;stroke-dasharray:7.0,7.0;"/><polygon fill="none" points="1268.47,497.54,1264.08,476.81,1280.44,490.28,1268.47,497.54" style="stroke:#A80036;stroke-width:1.0;"/><!--MD5=[656541fce7e2e217fa5a430422d330c8]
reverse link subscribable_33c09d2c to execute_simple_ea430bad--><path codeLine="94" d="M2194.86,153.72 C2218.81,166.31 2240.3,182.97 2256,205 C2344.51,329.23 2219.31,431.58 2084,502 C1995.9,547.85 1747.97,585.1 1566.05,607.36 " fill="none" id="subscribable_33c09d2c-backto-execute_simple_ea430bad" style="stroke:#A80036;stroke-width:1.0;stroke-dasharray:7.0,7.0;"/><polygon fill="none" points="2191.66,159.95,2176.58,145.07,2197.65,147.3,2191.66,159.95" style="stroke:#A80036;stroke-width:1.0;"/><!--MD5=[00df6e0b47da0020d031442301b3b885]
reverse link event_bus_2346de6e to execute_with_hooks_fa3c885c--><path codeLine="95" d="M1930.44,334.75 C1950.78,386.89 1966.13,457.89 1925,502 C1864.61,566.76 1216.95,540.77 1130,557.5 C1123.02,558.84 1115.95,560.33 1108.85,561.95 " fill="none" id="event_bus_2346de6e-backto-execute_with_hooks_fa3c885c" style="stroke:#A80036;stroke-width:1.0;"/><polygon fill="#A80036" points="1928.59,330.08,1928.1925,339.9208,1930.4346,334.7273,1935.6282,336.9694,1928.59,330.08" style="stroke:#A80036;stroke-width:1.0;"/><!--MD5=[29bdb1701acccfa1c45847c34a815fd2]
reverse link event_bus_type_e4eda33b to execute_with_hooks_fa3c885c--><path codeLine="96" d="M1745.29,141.29 C1749.56,142.64 1753.82,143.9 1758,145 C1844.06,167.72 2095.97,137.51 2154,205 C2190.22,247.12 2177.6,279.71 2154,330 C2103.19,438.29 2058.06,457.57 1947,502 C1778.05,569.59 1308.73,523.29 1130,557.5 C1123.02,558.84 1115.95,560.32 1108.84,561.93 " fill="none" id="event_bus_type_e4eda33b-backto-execute_with_hooks_fa3c885c" style="stroke:#A80036;stroke-width:1.0;"/><polygon fill="#A80036" points="1740.28,139.66,1747.607,146.2414,1745.0361,141.2025,1750.075,138.6317,1740.28,139.66" style="stroke:#A80036;stroke-width:1.0;"/><!--MD5=[020b0f089ca9a53984a88e4aa75d9879]
reverse link event_bus_util_55c275a7 to execute_with_hooks_fa3c885c--><path codeLine="97" d="M1672.4,478.16 C1643.69,486.92 1611.77,495.75 1582,502 C1383.93,543.61 1327.68,514.06 1130,557.5 C1123.66,558.89 1117.25,560.39 1110.79,561.97 " fill="none" id="event_bus_util_55c275a7-backto-execute_with_hooks_fa3c885c" style="stroke:#A80036;stroke-width:1.0;"/><polygon fill="#A80036" points="1677.35,476.64,1667.5719,475.4616,1672.5708,478.1094,1669.923,483.1083,1677.35,476.64" style="stroke:#A80036;stroke-width:1.0;"/><!--MD5=[b871b8f985b8221d568637738c3eab76]
reverse link unsubscribable_53831e77 to execute_with_hooks_fa3c885c--><path codeLine="98" d="M2311.33,150.08 C2296.44,228.48 2248.28,419.31 2122,502 C2029.64,562.47 1238.55,537.39 1130,557.5 C1122.81,558.83 1115.53,560.33 1108.2,561.96 " fill="none" id="unsubscribable_53831e77-backto-execute_with_hooks_fa3c885c" style="stroke:#A80036;stroke-width:1.0;"/><polygon fill="#A80036" points="2312.26,145.08,2306.6813,153.1965,2311.3455,149.9957,2314.5463,154.6598,2312.26,145.08" style="stroke:#A80036;stroke-width:1.0;"/><!--MD5=[adf3340d02a3c02c8dca960df4b5355f]
reverse link function_array_b669ac47 to execute_with_hooks_fa3c885c--><path codeLine="99" d="M904,507.73 C904,525.08 904,544.09 904,561.85 " fill="none" id="function_array_b669ac47-backto-execute_with_hooks_fa3c885c" style="stroke:#A80036;stroke-width:1.0;"/><polygon fill="#A80036" points="904,502.4,900,511.4,904,507.4,908,511.4,904,502.4" style="stroke:#A80036;stroke-width:1.0;"/><!--MD5=[408d5161bcc4a6c2043f6b5464c4f8ba]
reverse link executable_94895fe1 to execute_with_hooks_fa3c885c--><path codeLine="100" d="M1172.9,486.12 C1131.71,508.16 1079.09,536.31 1031.33,561.86 " fill="none" id="executable_94895fe1-backto-execute_with_hooks_fa3c885c" style="stroke:#A80036;stroke-width:1.0;stroke-dasharray:7.0,7.0;"/><polygon fill="none" points="1169.73,479.87,1190.67,476.61,1176.34,492.21,1169.73,479.87" style="stroke:#A80036;stroke-width:1.0;"/><!--MD5=[856dc6438435c0fee7402a79aa35f68f]
reverse link subscribable_33c09d2c to execute_with_hooks_fa3c885c--><path codeLine="101" d="M2118.86,154.5 C2140.79,167.11 2160.84,183.59 2174,205 C2203.1,252.32 2190.45,276.94 2174,330 C2146.55,418.55 2136.69,456.37 2056,502 C1876.56,603.48 1332.62,519.55 1130,557.5 C1122.81,558.85 1115.53,560.35 1108.21,562 " fill="none" id="subscribable_33c09d2c-backto-execute_with_hooks_fa3c885c" style="stroke:#A80036;stroke-width:1.0;stroke-dasharray:7.0,7.0;"/><polygon fill="none" points="2115.47,160.63,2100.96,145.19,2121.93,148.21,2115.47,160.63" style="stroke:#A80036;stroke-width:1.0;"/><!--MD5=[55d290d36c7bc860694339954cc841f6]
reverse link event_bus_2346de6e to life_cycle_ee3c432e--><path codeLine="102" d="M1653.27,268.81 C1318.61,271.55 751.19,285.37 679,347 C548.37,458.53 685.29,578.5 594,724 C586.04,736.69 576.46,748.7 565.96,759.95 " fill="none" id="event_bus_2346de6e-backto-life_cycle_ee3c432e" style="stroke:#A80036;stroke-width:1.0;"/><polygon fill="#A80036" points="1658.67,268.76,1649.636,264.8373,1653.6702,268.8029,1649.7046,272.837,1658.67,268.76" style="stroke:#A80036;stroke-width:1.0;"/><!--MD5=[f449d9a59fe93852bd5955b84a58856c]
reverse link unsubscribable_53831e77 to life_cycle_ee3c432e--><path codeLine="103" d="M2353.69,149.09 C2367.92,164.55 2382.56,184.1 2390,205 C2408.64,257.34 2408.15,277.49 2390,330 C2293.67,608.77 2137.67,636.51 1856,724 C1634.72,792.74 982.11,833.25 639.16,850.36 " fill="none" id="unsubscribable_53831e77-backto-life_cycle_ee3c432e" style="stroke:#A80036;stroke-width:1.0;"/><polygon fill="#A80036" points="2350.08,145.25,2353.3161,154.552,2353.4992,148.8981,2359.1531,149.0813,2350.08,145.25" style="stroke:#A80036;stroke-width:1.0;"/><!--MD5=[a2a5351e352f35d60a5a40cfa3aeff3a]
reverse link execute_simple_ea430bad to life_cycle_ee3c432e--><path codeLine="104" d="M1228.98,688.95 C1197.08,701.73 1162.65,714.34 1130,724 C968.19,771.86 780.43,807.06 639.08,829.65 " fill="none" id="execute_simple_ea430bad-backto-life_cycle_ee3c432e" style="stroke:#A80036;stroke-width:1.0;"/><polygon fill="#A80036" points="1233.67,687.07,1223.8281,686.6986,1229.0276,688.927,1226.7993,694.1264,1233.67,687.07" style="stroke:#A80036;stroke-width:1.0;"/><!--MD5=[eb7cceaaa15a859184aa7b107d300531]
reverse link destructible_14789501 to life_cycle_ee3c432e--><path codeLine="105" d="M485.82,680.95 C477.71,704.06 467.73,732.53 458.12,759.91 " fill="none" id="destructible_14789501-backto-life_cycle_ee3c432e" style="stroke:#A80036;stroke-width:1.0;stroke-dasharray:7.0,7.0;"/><polygon fill="none" points="479.31,678.36,492.54,661.81,492.52,683,479.31,678.36" style="stroke:#A80036;stroke-width:1.0;"/><!--MD5=[3ad99cb82c1126fd5ad7baf2e447c310]
reverse link creatable_6eee977e to life_cycle_ee3c432e--><path codeLine="106" d="M344.16,680.25 C354.35,703.49 366.97,732.25 379.1,759.91 " fill="none" id="creatable_6eee977e-backto-life_cycle_ee3c432e" style="stroke:#A80036;stroke-width:1.0;stroke-dasharray:7.0,7.0;"/><polygon fill="none" points="337.7,682.93,336.07,661.81,350.52,677.31,337.7,682.93" style="stroke:#A80036;stroke-width:1.0;"/><!--MD5=[38396f62fee7c6b73a20c127bfb97264]
reverse link subscribable_33c09d2c to life_cycle_ee3c432e--><path codeLine="107" d="M2217.62,153.74 C2241.54,166.42 2262.97,183.09 2279,205 C2360.68,316.62 2290.56,411.45 2186,502 C1969.79,689.22 1860.17,657.54 1582,724 C1258.84,801.21 874.07,835.31 639.26,849.85 " fill="none" id="subscribable_33c09d2c-backto-life_cycle_ee3c432e" style="stroke:#A80036;stroke-width:1.0;stroke-dasharray:7.0,7.0;"/><polygon fill="none" points="2214.38,159.95,2199.35,145.01,2220.41,147.32,2214.38,159.95" style="stroke:#A80036;stroke-width:1.0;"/><!--MD5=[8f4f5903ffe0f39befa5d62ea1ca6379]
@startuml
    folder "src" as src_b874d07 {
      enum "LifeCycleDirection" as life_cycle_direction_d6caefff {
        CREATE = 'create'
        DESTROY = 'destroy'
      }
      class "AppFlow" as app_flow_d6caefff {
        # _deepExecFlowList(lifeCycleList: LifeCycleList,\n createOrDestroy: LifeCycleDirection): Promise<void>
        # _execSyncFlowList(lifeCycleList: LifeCycle[],\n createOrDestroy: LifeCycleDirection): Promise<void>
        # _lifeCycleList: LifeCycleList
        # _topLevelReversedFlowList: LifeCycleList
        constructor(...args: LifeCycleList)
        + create: Promise<void>
        + destroy: Promise<void>
      }
      folder "event-bus" as event_bus_b179faad {
        enum "EventBusType" as event_bus_type_e4eda33b {
          LOG = 'rx-bus.log'
        }
        object "eventBusUtil" as event_bus_util_55c275a7 {
          + startEndEventWrapAndExecute(eventBus: EventBus,\n message: string,\n cb: () => Promise<any>): Promise<T>
        }
        class "EventBus" as event_bus_2346de6e {
          # _rxjsFilteredSubject(type?: EventBusType): Observable<EventBusPayload<T>>
          # _subject
          + emit(type: EventBusType,\n message: T): void
          + subscribe(cb: (message: EventBusPayload<T>) => void,\n type?: EventBusType): Unsubscribable
        }
        interface "Subscribable" as subscribable_33c09d2c {
          + subscribe(cb: (message: EventBusPayload<T>) => void): Unsubscribable
        }
        interface "Unsubscribable" as unsubscribable_53831e77 {
          + unsubscribe: void
        }
      }
      folder "execute" as execute_6909d7 {
        interface "Executable" as executable_94895fe1 {
          + execute: Promise<T>
        }
        class "ExecuteSimple" as execute_simple_ea430bad {
          # _eventBus
          constructor(protected readonly _name: string,\n protected readonly _fn: () => Promise<T>)
          + execute: Promise<T>
          + subscribe(cb: (message: EventBusPayload) => void): Unsubscribable
        }
        class "ExecuteWithHooks" as execute_with_hooks_fa3c885c {
          # _eventBus
          # _postFn
          # _preFn
          constructor(protected _name: string,\n protected _fn: () => Promise<T>)
          + execute: Promise<T>
          + subscribe(cb: (message: EventBusPayload) => void): Unsubscribable
        }
        class "FunctionArray" as function_array_b669ac47 {
          + HasFns: boolean
          # _fns: CallBackFn<T>[]
          + append(cb: CallBackFn<T>): void
          + constructor(fns: CallBackFn<T>[] = [])
          + execAll: Promise<T[]>
        }
      }
      folder "life-cycle" as life_cycle_3f5aa653 {
        interface "Creatable" as creatable_6eee977e {
          + create: Promise<T>
        }
        interface "Destructible" as destructible_14789501 {
          + destroy: Promise<T>
        }
        abstract "LifeCycle" as life_cycle_ee3c432e {
          # _createExec: LifeCycleExecutable<T>
          # {abstract} _createFn: Promise<T>
          # _destroyExec: LifeCycleExecutable<T>
          # {abstract} _destroyFn: Promise<T>
          # _eventBus
          # constructor(name: string,\n createExec: ObjectType<LifeCycleExecutable<T>> = ExecuteSimple,\n destroyExec: ObjectType<LifeCycleExecutable<T>> = ExecuteSimple)
          + create: Promise<T>
          + destroy: Promise<T>
          + name: string
          + subscribe(cb: (message: EventBusPayload) => void): Unsubscribable
        }
      }
    }
  app_flow_d6caefff -up-> life_cycle_ee3c432e
  app_flow_d6caefff -up-> life_cycle_direction_d6caefff
  event_bus_util_55c275a7 -up-> event_bus_2346de6e
  event_bus_util_55c275a7 -up-> event_bus_type_e4eda33b
  event_bus_2346de6e -up-> event_bus_type_e4eda33b
  event_bus_2346de6e -up-> unsubscribable_53831e77
  event_bus_2346de6e .up.|> subscribable_33c09d2c
  execute_simple_ea430bad -up-> event_bus_2346de6e
  execute_simple_ea430bad -up-> event_bus_type_e4eda33b
  execute_simple_ea430bad -up-> event_bus_util_55c275a7
  execute_simple_ea430bad -up-> unsubscribable_53831e77
  execute_simple_ea430bad .up.|> executable_94895fe1
  execute_simple_ea430bad .up.|> subscribable_33c09d2c
  execute_with_hooks_fa3c885c -up-> event_bus_2346de6e
  execute_with_hooks_fa3c885c -up-> event_bus_type_e4eda33b
  execute_with_hooks_fa3c885c -up-> event_bus_util_55c275a7
  execute_with_hooks_fa3c885c -up-> unsubscribable_53831e77
  execute_with_hooks_fa3c885c -up-> function_array_b669ac47
  execute_with_hooks_fa3c885c .up.|> executable_94895fe1
  execute_with_hooks_fa3c885c .up.|> subscribable_33c09d2c
  life_cycle_ee3c432e -up-> event_bus_2346de6e
  life_cycle_ee3c432e -up-> unsubscribable_53831e77
  life_cycle_ee3c432e -up-> execute_simple_ea430bad
  life_cycle_ee3c432e .up.|> destructible_14789501
  life_cycle_ee3c432e .up.|> creatable_6eee977e
  life_cycle_ee3c432e .up.|> subscribable_33c09d2c
@enduml

PlantUML version 1.2021.11(Sat Oct 02 15:26:11 CEST 2021)
(GPL source distribution)
Java Runtime: OpenJDK Runtime Environment
JVM: OpenJDK 64-Bit Server VM
Default Encoding: UTF-8
Language: en
Country: US
--></g></svg>