<?xml version="1.0" encoding="UTF-8" standalone="no"?><svg xmlns="http://www.w3.org/2000/svg" xmlns:xlink="http://www.w3.org/1999/xlink" contentScriptType="application/ecmascript" contentStyleType="text/css" height="743px" preserveAspectRatio="none" style="width:703px;height:743px;background:#FFFFFF;" version="1.1" viewBox="0 0 703 743" width="703px" zoomAndPan="magnify"><defs><filter height="300%" id="f18i2v42iwz4k7" width="300%" x="-1" y="-1"><feGaussianBlur result="blurOut" stdDeviation="2.0"/><feColorMatrix in="blurOut" result="blurOut2" type="matrix" values="0 0 0 0 0 0 0 0 0 0 0 0 0 0 0 0 0 0 .4 0"/><feOffset dx="4.0" dy="4.0" in="blurOut2" result="blurOut3"/><feBlend in="SourceGraphic" in2="blurOut3" mode="normal"/></filter></defs><g><!--MD5=[e98ebe3490bbb2ea6f5530794af2bc99]
cluster src_b874d07--><polygon fill="#FFFFFF" filter="url(#f18i2v42iwz4k7)" points="16,6,45,6,52,28.2969,686,28.2969,686,736,16,736,16,6" style="stroke:#000000;stroke-width:1.5;"/><line style="stroke:#000000;stroke-width:1.5;" x1="16" x2="52" y1="28.2969" y2="28.2969"/><text fill="#000000" font-family="sans-serif" font-size="14" font-weight="bold" lengthAdjust="spacing" textLength="23" x="20" y="20.9951">src</text><!--MD5=[781047e43649f66bc4b22e0fddffa7f1]
entity flow_list_d6caefff--><rect fill="#FEFECE" filter="url(#f18i2v42iwz4k7)" height="46.5938" style="stroke:#000000;stroke-width:1.5;" width="193" x="310.5" y="80"/><text fill="#000000" font-family="sans-serif" font-size="14" lengthAdjust="spacing" textLength="56" x="320.5" y="95.9951">FlowList</text><line style="stroke:#000000;stroke-width:1.0;" x1="311.5" x2="502.5" y1="99.2969" y2="99.2969"/><text fill="#000000" font-family="sans-serif" font-size="14" lengthAdjust="spacing" textLength="173" x="320.5" y="116.292">(LifeCycle | LifeCycle[])[]</text><!--MD5=[9935c4f5ea29dce225fe0c559418fa05]
class flow_direction_d6caefff--><rect codeLine="7" fill="#FEFECE" filter="url(#f18i2v42iwz4k7)" height="73.6458" id="flow_direction_d6caefff" style="stroke:#A80036;stroke-width:1.5;" width="131" x="538.5" y="66.5"/><ellipse cx="561.6" cy="82.5" fill="#EB937F" rx="11" ry="11" style="stroke:#A80036;stroke-width:1.0;"/><path d="M565.725,89 L557.9906,89 L557.9906,76 L565.725,76 L565.725,78.2656 L560.4438,78.2656 L560.4438,81 L565.225,81 L565.225,83.2656 L560.4438,83.2656 L560.4438,86.7344 L565.725,86.7344 L565.725,89 Z " fill="#000000"/><text fill="#000000" font-family="sans-serif" font-size="12" lengthAdjust="spacing" textLength="81" x="577.4" y="86.6543">FlowDirection</text><line style="stroke:#A80036;stroke-width:1.5;" x1="539.5" x2="668.5" y1="98.5" y2="98.5"/><text fill="#000000" font-family="sans-serif" font-size="11" lengthAdjust="spacing" textLength="104" x="544.5" y="112.725">CREATE = 'create'</text><text fill="#000000" font-family="sans-serif" font-size="11" lengthAdjust="spacing" textLength="119" x="544.5" y="125.5478">DESTROY = 'destroy'</text><line style="stroke:#A80036;stroke-width:1.5;" x1="539.5" x2="668.5" y1="132.1458" y2="132.1458"/><!--MD5=[80f5ea28014179df447d8c1222e0b7e6]
class app_flow_d6caefff--><rect codeLine="11" fill="#FEFECE" filter="url(#f18i2v42iwz4k7)" height="189.0516" id="app_flow_d6caefff" style="stroke:#A80036;stroke-width:1.5;" width="307" x="172.5" y="226"/><ellipse cx="296.25" cy="242" fill="#A9DCDF" rx="11" ry="11" style="stroke:#A80036;stroke-width:1.0;"/><path d="M296.375,237.3125 L295.2188,242.6406 L297.5313,242.6406 L296.375,237.3125 Z M294.875,234.75 L297.875,234.75 L301.2188,247.75 L298.7656,247.75 L298,244.75 L294.7188,244.75 L293.9688,247.75 L291.5313,247.75 L294.875,234.75 Z " fill="#000000"/><text fill="#000000" font-family="sans-serif" font-size="12" font-style="italic" lengthAdjust="spacing" textLength="51" x="316.75" y="246.1543">AppFlow</text><line style="stroke:#A80036;stroke-width:1.5;" x1="173.5" x2="478.5" y1="258" y2="258"/><polygon fill="none" points="183.5,264,187.5,268,183.5,272,179.5,268" style="stroke:#B38D22;stroke-width:1.0;"/><text fill="#000000" font-family="sans-serif" font-size="11" lengthAdjust="spacing" textLength="100" x="192.5" y="272.225">_flowList: FlowList</text><polygon fill="none" points="183.5,276.8229,187.5,280.8229,183.5,284.8229,179.5,280.8229" style="stroke:#B38D22;stroke-width:1.0;"/><text fill="#000000" font-family="sans-serif" font-size="11" lengthAdjust="spacing" textLength="204" x="192.5" y="285.0478">_topLevelReversedFlowList: FlowList</text><ellipse cx="183.5" cy="294.6458" rx="3" ry="3" style="stroke:#038048;stroke-width:1.0;fill:none;"/><text fill="#000000" font-family="sans-serif" font-size="11" lengthAdjust="spacing" textLength="132" x="192.5" y="297.8707">create: Promise&lt;void&gt;</text><ellipse cx="183.5" cy="307.4686" rx="3" ry="3" style="stroke:#038048;stroke-width:1.0;fill:none;"/><text fill="#000000" font-family="sans-serif" font-size="11" lengthAdjust="spacing" textLength="139" x="192.5" y="310.6936">destroy: Promise&lt;void&gt;</text><line style="stroke:#A80036;stroke-width:1.5;" x1="173.5" x2="478.5" y1="317.2915" y2="317.2915"/><ellipse cx="183.5" cy="328.2915" fill="#84BE84" rx="3" ry="3" style="stroke:#038048;stroke-width:1.0;"/><text fill="#000000" font-family="sans-serif" font-size="11" lengthAdjust="spacing" textLength="162" x="192.5" y="331.5165">DeepExecFlowList(params: {</text><text fill="#000000" font-family="sans-serif" font-size="11" lengthAdjust="spacing" textLength="98" x="196.5" y="344.3393">flowList: FlowList;</text><text fill="#000000" font-family="sans-serif" font-size="11" lengthAdjust="spacing" textLength="132" x="196.5" y="357.1622">direction: FlowDirection</text><text fill="#000000" font-family="sans-serif" font-size="11" lengthAdjust="spacing" textLength="107" x="192.5" y="369.9851">}): Promise&lt;void&gt;</text><ellipse cx="183.5" cy="379.583" fill="#84BE84" rx="3" ry="3" style="stroke:#038048;stroke-width:1.0;"/><text fill="#000000" font-family="sans-serif" font-size="11" lengthAdjust="spacing" textLength="240" x="192.5" y="382.808">ExecSyncFlowList(lifeCycleList: LifeCycle[],</text><text fill="#000000" font-family="sans-serif" font-size="11" lengthAdjust="spacing" textLength="277" x="196.5" y="395.6308">createOrDestroy: FlowDirection): Promise&lt;void&gt;</text><polygon fill="#FFFF44" points="183.5,400.2288,187.5,404.2288,183.5,408.2288,179.5,404.2288" style="stroke:#B38D22;stroke-width:1.0;"/><text fill="#000000" font-family="sans-serif" font-size="11" lengthAdjust="spacing" textLength="161" x="192.5" y="408.4537">constructor(...args: FlowList)</text><!--MD5=[15bf7a2118328341b3c43dabfa36c980]
class app_starter_status_e965a85a--><rect codeLine="20" fill="#FEFECE" filter="url(#f18i2v42iwz4k7)" height="73.6458" id="app_starter_status_e965a85a" style="stroke:#A80036;stroke-width:1.5;" width="137" x="532.5" y="283.5"/><ellipse cx="547.5" cy="299.5" fill="#EB937F" rx="11" ry="11" style="stroke:#A80036;stroke-width:1.0;"/><path d="M551.625,306 L543.8906,306 L543.8906,293 L551.625,293 L551.625,295.2656 L546.3438,295.2656 L546.3438,298 L551.125,298 L551.125,300.2656 L546.3438,300.2656 L546.3438,303.7344 L551.625,303.7344 L551.625,306 Z " fill="#000000"/><text fill="#000000" font-family="sans-serif" font-size="12" lengthAdjust="spacing" textLength="105" x="561.5" y="303.6543">AppStarterStatus</text><line style="stroke:#A80036;stroke-width:1.5;" x1="533.5" x2="668.5" y1="315.5" y2="315.5"/><text fill="#000000" font-family="sans-serif" font-size="11" lengthAdjust="spacing" textLength="115" x="538.5" y="329.725">STARTED = 'started'</text><text fill="#000000" font-family="sans-serif" font-size="11" lengthAdjust="spacing" textLength="120" x="538.5" y="342.5478">STOPPED = 'stopped'</text><line style="stroke:#A80036;stroke-width:1.5;" x1="533.5" x2="668.5" y1="349.1458" y2="349.1458"/><!--MD5=[30f5214e3d94d1ddd0dcdee8a74122fc]
entity app_flow_object_type_e965a85a--><rect fill="#FEFECE" filter="url(#f18i2v42iwz4k7)" height="46.5938" style="stroke:#000000;stroke-width:1.5;" width="161" x="492.5" y="527"/><text fill="#000000" font-family="sans-serif" font-size="14" lengthAdjust="spacing" textLength="141" x="502.5" y="542.9951">AppFlowObjectType</text><line style="stroke:#000000;stroke-width:1.0;" x1="493.5" x2="652.5" y1="546.2969" y2="546.2969"/><text fill="#000000" font-family="sans-serif" font-size="14" lengthAdjust="spacing" textLength="87" x="502.5" y="563.292">{ new (): T }</text><!--MD5=[e812e902a5ae72f42e42cfe00088012f]
class app_starter_e965a85a--><rect codeLine="29" fill="#FEFECE" filter="url(#f18i2v42iwz4k7)" height="150.583" id="app_starter_e965a85a" style="stroke:#A80036;stroke-width:1.5;" width="233" x="224.5" y="475"/><ellipse cx="303.75" cy="491" fill="#ADD1B2" rx="11" ry="11" style="stroke:#A80036;stroke-width:1.0;"/><path d="M306.2344,496.875 Q305.6563,497.1875 305.0156,497.3438 Q304.375,497.5 303.6719,497.5 Q301.1563,497.5 299.8281,495.8281 Q298.5156,494.1563 298.5156,491 Q298.5156,487.8438 299.8281,486.1719 Q301.1563,484.5 303.6719,484.5 Q304.375,484.5 305.0156,484.6563 Q305.6719,484.8125 306.2344,485.125 L306.2344,487.9219 Q305.5938,487.3438 305,487.0781 Q304.4063,486.8125 303.7813,486.8125 Q302.4375,486.8125 301.75,487.875 Q301.0625,488.9219 301.0625,491 Q301.0625,493.0781 301.75,494.1406 Q302.4375,495.1875 303.7813,495.1875 Q304.4063,495.1875 305,494.9219 Q305.5938,494.6563 306.2344,494.0781 L306.2344,496.875 Z " fill="#000000"/><text fill="#000000" font-family="sans-serif" font-size="12" lengthAdjust="spacing" textLength="66" x="324.25" y="495.1543">AppStarter</text><line style="stroke:#A80036;stroke-width:1.5;" x1="225.5" x2="456.5" y1="507" y2="507"/><polygon fill="none" points="235.5,513,239.5,517,235.5,521,231.5,517" style="stroke:#B38D22;stroke-width:1.0;"/><text fill="#000000" font-family="sans-serif" font-size="11" lengthAdjust="spacing" textLength="84" x="244.5" y="521.225">_flow: AppFlow</text><polygon fill="none" points="235.5,525.8229,239.5,529.8229,235.5,533.8229,231.5,529.8229" style="stroke:#B38D22;stroke-width:1.0;"/><text fill="#000000" font-family="sans-serif" font-size="11" lengthAdjust="spacing" textLength="173" x="244.5" y="534.0478">_gracefulStop: Promise&lt;void&gt;</text><polygon fill="none" points="235.5,538.6458,239.5,542.6458,235.5,546.6458,231.5,542.6458" style="stroke:#B38D22;stroke-width:1.0;"/><text fill="#000000" font-family="sans-serif" font-size="11" lengthAdjust="spacing" textLength="119" x="244.5" y="546.8707">_registerOnExit: void</text><polygon fill="none" points="235.5,551.4686,239.5,555.4686,235.5,559.4686,231.5,555.4686" style="stroke:#B38D22;stroke-width:1.0;"/><text fill="#000000" font-family="sans-serif" font-size="11" lengthAdjust="spacing" textLength="144" x="244.5" y="559.6936">_status: AppStarterStatus</text><ellipse cx="235.5" cy="569.2915" rx="3" ry="3" style="stroke:#038048;stroke-width:1.0;fill:none;"/><text fill="#000000" font-family="sans-serif" font-size="11" lengthAdjust="spacing" textLength="122" x="244.5" y="572.5165">start: Promise&lt;void&gt;</text><ellipse cx="235.5" cy="582.1144" rx="3" ry="3" style="stroke:#038048;stroke-width:1.0;fill:none;"/><text fill="#000000" font-family="sans-serif" font-size="11" lengthAdjust="spacing" textLength="120" x="244.5" y="585.3393">stop: Promise&lt;void&gt;</text><line style="stroke:#A80036;stroke-width:1.5;" x1="225.5" x2="456.5" y1="591.9373" y2="591.9373"/><polygon fill="#FFFF44" points="235.5,597.9373,239.5,601.9373,235.5,605.9373,231.5,601.9373" style="stroke:#B38D22;stroke-width:1.0;"/><text fill="#000000" font-family="sans-serif" font-size="11" lengthAdjust="spacing" textLength="207" x="244.5" y="606.1622">_onError(err: Error): Promise&lt;void&gt;</text><text fill="#000000" font-family="sans-serif" font-size="11" lengthAdjust="spacing" textLength="173" x="244.5" y="618.9851">constructor(appFlow: AppFlow)</text><rect fill="#FEFECE" filter="url(#f18i2v42iwz4k7)" height="33.9688" style="stroke:#A80036;stroke-width:1.5;" width="124" x="395" y="686"/><text fill="#000000" font-family="sans-serif" font-size="12" lengthAdjust="spacing" textLength="110" x="402" y="699.1387">appStarterFactory</text><line style="stroke:#A80036;stroke-width:1.5;" x1="396" x2="518" y1="703.9688" y2="703.9688"/><!--MD5=[a42c140d5bc5e1da3457fea9856ff216]
class life_cycle_2ee6f65a--><rect codeLine="41" fill="#FEFECE" filter="url(#f18i2v42iwz4k7)" height="124.9373" id="life_cycle_2ee6f65a" style="stroke:#A80036;stroke-width:1.5;" width="243" x="32.5" y="41"/><ellipse cx="123.25" cy="57" fill="#A9DCDF" rx="11" ry="11" style="stroke:#A80036;stroke-width:1.0;"/><path d="M123.375,52.3125 L122.2188,57.6406 L124.5313,57.6406 L123.375,52.3125 Z M121.875,49.75 L124.875,49.75 L128.2188,62.75 L125.7656,62.75 L125,59.75 L121.7188,59.75 L120.9688,62.75 L118.5313,62.75 L121.875,49.75 Z " fill="#000000"/><text fill="#000000" font-family="sans-serif" font-size="12" font-style="italic" lengthAdjust="spacing" textLength="53" x="143.75" y="61.1543">LifeCycle</text><line style="stroke:#A80036;stroke-width:1.5;" x1="33.5" x2="274.5" y1="73" y2="73"/><polygon fill="none" points="43.5,79,47.5,83,43.5,87,39.5,83" style="stroke:#B38D22;stroke-width:1.0;"/><text fill="#000000" font-family="sans-serif" font-size="11" font-style="italic" lengthAdjust="spacing" textLength="134" x="52.5" y="87.225">_createFn: Promise&lt;T&gt;</text><polygon fill="none" points="43.5,91.8229,47.5,95.8229,43.5,99.8229,39.5,95.8229" style="stroke:#B38D22;stroke-width:1.0;"/><text fill="#000000" font-family="sans-serif" font-size="11" font-style="italic" lengthAdjust="spacing" textLength="141" x="52.5" y="100.0478">_destroyFn: Promise&lt;T&gt;</text><ellipse cx="43.5" cy="109.6458" rx="3" ry="3" style="stroke:#038048;stroke-width:1.0;fill:none;"/><text fill="#000000" font-family="sans-serif" font-size="11" lengthAdjust="spacing" textLength="115" x="52.5" y="112.8707">create: Promise&lt;T&gt;</text><ellipse cx="43.5" cy="122.4686" rx="3" ry="3" style="stroke:#038048;stroke-width:1.0;fill:none;"/><text fill="#000000" font-family="sans-serif" font-size="11" lengthAdjust="spacing" textLength="122" x="52.5" y="125.6936">destroy: Promise&lt;T&gt;</text><ellipse cx="43.5" cy="135.2915" rx="3" ry="3" style="stroke:#038048;stroke-width:1.0;fill:none;"/><text fill="#000000" font-family="sans-serif" font-size="11" lengthAdjust="spacing" textLength="72" x="52.5" y="138.5165">name: string</text><line style="stroke:#A80036;stroke-width:1.5;" x1="33.5" x2="274.5" y1="145.1144" y2="145.1144"/><polygon fill="#FFFF44" points="43.5,151.1144,47.5,155.1144,43.5,159.1144,39.5,155.1144" style="stroke:#B38D22;stroke-width:1.0;"/><text fill="#000000" font-family="sans-serif" font-size="11" lengthAdjust="spacing" textLength="217" x="52.5" y="159.3393">constructor(params: { name: string })</text><!--MD5=[44a80b6860556db25bba0c9c792213c7]
reverse link life_cycle_2ee6f65a to app_flow_d6caefff--><path codeLine="50" d="M206.46,170.07 C220.52,187.66 236.01,207.02 251.04,225.81 " fill="none" id="life_cycle_2ee6f65a-backto-app_flow_d6caefff" style="stroke:#A80036;stroke-width:1.0;"/><polygon fill="#A80036" points="203.29,166.11,205.8015,175.6332,206.4187,170.0102,212.0418,170.6273,203.29,166.11" style="stroke:#A80036;stroke-width:1.0;"/><!--MD5=[0caa504673193a32c7f5392da371156c]
reverse link flow_list_d6caefff to app_flow_d6caefff--><path codeLine="51" d="M396.64,132 C387.66,155.83 374.13,191.75 361.31,225.79 " fill="none" id="flow_list_d6caefff-backto-app_flow_d6caefff" style="stroke:#A80036;stroke-width:1.0;"/><polygon fill="#A80036" points="398.48,127.1,391.5558,134.104,396.7119,131.7769,399.039,136.933,398.48,127.1" style="stroke:#A80036;stroke-width:1.0;"/><!--MD5=[4eba5bc460bbfd6bb872c29ead701bf6]
reverse link flow_direction_d6caefff to app_flow_d6caefff--><path codeLine="52" d="M553.2,143.79 C523.4,166.84 484.38,197.01 447.11,225.84 " fill="none" id="flow_direction_d6caefff-backto-app_flow_d6caefff" style="stroke:#A80036;stroke-width:1.0;"/><polygon fill="#A80036" points="557.16,140.73,547.5924,143.0669,553.2033,143.7868,552.4833,149.3977,557.16,140.73" style="stroke:#A80036;stroke-width:1.0;"/><!--MD5=[510b105e107552d4308c24e7b7d3ac35]
reverse link app_flow_d6caefff to app_flow_d6caefff--><path codeLine="53" d="M485.04,286.26 C502.92,292.7 514.5,304.11 514.5,320.5 C514.5,338.43 500.65,350.41 479.84,356.43 " fill="none" id="app_flow_d6caefff-backto-app_flow_d6caefff" style="stroke:#A80036;stroke-width:1.0;"/><polygon fill="#A80036" points="479.84,284.57,487.1849,291.1315,484.6003,286.0996,489.6322,283.515,479.84,284.57" style="stroke:#A80036;stroke-width:1.0;"/><!--MD5=[c0c96d52e3ff4931685ab02949968e02]
reverse link app_flow_d6caefff to app_starter_e965a85a--><path codeLine="54" d="M332.5,420.37 C333.71,438.67 334.95,457.51 336.09,474.94 " fill="none" id="app_flow_d6caefff-backto-app_starter_e965a85a" style="stroke:#A80036;stroke-width:1.0;"/><polygon fill="#A80036" points="332.17,415.22,328.7705,424.4636,332.4988,420.2092,336.7532,423.9375,332.17,415.22" style="stroke:#A80036;stroke-width:1.0;"/><!--MD5=[138d277b3cdafc5a46bac0683966f049]
reverse link app_starter_status_e965a85a to app_starter_e965a85a--><path codeLine="55" d="M566.69,361.75 C551.48,378.8 532.98,398.5 515,415 C492.78,435.4 467.7,456.01 443.65,474.77 " fill="none" id="app_starter_status_e965a85a-backto-app_starter_e965a85a" style="stroke:#A80036;stroke-width:1.0;"/><polygon fill="#A80036" points="570.08,357.92,561.1111,361.9892,566.7582,361.657,567.0904,367.3041,570.08,357.92" style="stroke:#A80036;stroke-width:1.0;"/><!--MD5=[e4a61df3d2162d6d9163b7c6d06c04ad]
reverse link app_flow_object_type_e965a85a to app_starter_factory_e965a85a--><path codeLine="56" d="M552.49,578.11 C528.45,609.3 489.37,660 469.48,685.81 " fill="none" id="app_flow_object_type_e965a85a-backto-app_starter_factory_e965a85a" style="stroke:#A80036;stroke-width:1.0;"/><polygon fill="#A80036" points="555.63,574.03,546.9623,578.7067,552.5732,577.9867,553.2931,583.5976,555.63,574.03" style="stroke:#A80036;stroke-width:1.0;"/><!--MD5=[bdf259345dbf3e31d1362e4e060868cc]
reverse link app_starter_e965a85a to app_starter_factory_e965a85a--><path codeLine="57" d="M401.9,630.51 C418.09,651.51 433.97,672.13 444.5,685.78 " fill="none" id="app_starter_e965a85a-backto-app_starter_factory_e965a85a" style="stroke:#A80036;stroke-width:1.0;"/><polygon fill="#A80036" points="398.66,626.31,400.9969,635.8776,401.7168,630.2667,407.3277,630.9867,398.66,626.31" style="stroke:#A80036;stroke-width:1.0;"/><!--MD5=[eea646533eb3a835487f4065c86171eb]
@startuml
    folder "src" as src_b874d07 {
      card flow_list_d6caefff [
        FlowList
        - - -
        (LifeCycle | LifeCycle[])[]
      ]
      enum "FlowDirection" as flow_direction_d6caefff {
        CREATE = 'create'
        DESTROY = 'destroy'
      }
      abstract "AppFlow" as app_flow_d6caefff {
        + DeepExecFlowList(params: {\n flowList: FlowList;\n direction: FlowDirection \n}): Promise<void>
        + ExecSyncFlowList(lifeCycleList: LifeCycle[],\n createOrDestroy: FlowDirection): Promise<void>
        # _flowList: FlowList
        # _topLevelReversedFlowList: FlowList
        # constructor(...args: FlowList)
        + create: Promise<void>
        + destroy: Promise<void>
      }
      enum "AppStarterStatus" as app_starter_status_e965a85a {
        STARTED = 'started'
        STOPPED = 'stopped'
      }
      card app_flow_object_type_e965a85a [
        AppFlowObjectType
        - - -
        { new (): T }
      ]
      class "AppStarter" as app_starter_e965a85a {
        # _flow: AppFlow
        # _gracefulStop: Promise<void>
        # _onError(err: Error): Promise<void>
        # _registerOnExit: void
        # _status: AppStarterStatus
        constructor(appFlow: AppFlow)
        + start: Promise<void>
        + stop: Promise<void>
      }
      object "appStarterFactory" as app_starter_factory_e965a85a {
      }
      abstract "LifeCycle" as life_cycle_2ee6f65a {
        # {abstract} _createFn: Promise<T>
        # {abstract} _destroyFn: Promise<T>
        # constructor(params: { name: string })
        + create: Promise<T>
        + destroy: Promise<T>
        + name: string
      }
    }
  app_flow_d6caefff -up-> life_cycle_2ee6f65a
  app_flow_d6caefff -up-> flow_list_d6caefff
  app_flow_d6caefff -up-> flow_direction_d6caefff
  app_flow_d6caefff -up-> app_flow_d6caefff
  app_starter_e965a85a -up-> app_flow_d6caefff
  app_starter_e965a85a -up-> app_starter_status_e965a85a
  app_starter_factory_e965a85a -up-> app_flow_object_type_e965a85a
  app_starter_factory_e965a85a -up-> app_starter_e965a85a
@enduml

PlantUML version 1.2021.11(Sat Oct 02 15:26:11 CEST 2021)
(GPL source distribution)
Java Runtime: OpenJDK Runtime Environment
JVM: OpenJDK 64-Bit Server VM
Default Encoding: UTF-8
Language: en
Country: US
--></g></svg>