<?xml version="1.0" encoding="UTF-8" standalone="no"?><svg xmlns="http://www.w3.org/2000/svg" xmlns:xlink="http://www.w3.org/1999/xlink" contentScriptType="application/ecmascript" contentStyleType="text/css" height="743px" preserveAspectRatio="none" style="width:808px;height:743px;background:#FFFFFF;" version="1.1" viewBox="0 0 808 743" width="808px" zoomAndPan="magnify"><defs><filter height="300%" id="f1vys5zcwzpwwf" width="300%" x="-1" y="-1"><feGaussianBlur result="blurOut" stdDeviation="2.0"/><feColorMatrix in="blurOut" result="blurOut2" type="matrix" values="0 0 0 0 0 0 0 0 0 0 0 0 0 0 0 0 0 0 .4 0"/><feOffset dx="4.0" dy="4.0" in="blurOut2" result="blurOut3"/><feBlend in="SourceGraphic" in2="blurOut3" mode="normal"/></filter></defs><g><!--MD5=[e98ebe3490bbb2ea6f5530794af2bc99]
cluster src_b874d07--><polygon fill="#FFFFFF" filter="url(#f1vys5zcwzpwwf)" points="16,6,45,6,52,28.2969,791,28.2969,791,736,16,736,16,6" style="stroke:#000000;stroke-width:1.5;"/><line style="stroke:#000000;stroke-width:1.5;" x1="16" x2="52" y1="28.2969" y2="28.2969"/><text fill="#000000" font-family="sans-serif" font-size="14" font-weight="bold" lengthAdjust="spacing" textLength="23" x="20" y="20.9951">src</text><!--MD5=[17e8e14ddad9d1540230552f311b3a9a]
cluster mocks_c1f08231--><polygon fill="#FFFFFF" filter="url(#f1vys5zcwzpwwf)" points="40,229.5,96,229.5,103,251.7969,258,251.7969,258,392.5,40,392.5,40,229.5" style="stroke:#000000;stroke-width:1.5;"/><line style="stroke:#000000;stroke-width:1.5;" x1="40" x2="103" y1="251.7969" y2="251.7969"/><text fill="#000000" font-family="sans-serif" font-size="14" font-weight="bold" lengthAdjust="spacing" text-decoration="underline" textLength="50" x="44" y="244.4951">mocks</text><!--MD5=[781047e43649f66bc4b22e0fddffa7f1]
entity flow_list_d6caefff--><rect fill="#FEFECE" filter="url(#f1vys5zcwzpwwf)" height="46.5938" style="stroke:#000000;stroke-width:1.5;" width="193" x="59.5" y="80"/><text fill="#000000" font-family="sans-serif" font-size="14" lengthAdjust="spacing" textLength="56" x="69.5" y="95.9951">FlowList</text><line style="stroke:#000000;stroke-width:1.0;" x1="60.5" x2="251.5" y1="99.2969" y2="99.2969"/><text fill="#000000" font-family="sans-serif" font-size="14" lengthAdjust="spacing" textLength="173" x="69.5" y="116.292">(LifeCycle | LifeCycle[])[]</text><!--MD5=[9935c4f5ea29dce225fe0c559418fa05]
class flow_direction_d6caefff--><rect codeLine="7" fill="#FEFECE" filter="url(#f1vys5zcwzpwwf)" height="73.6458" id="flow_direction_d6caefff" style="stroke:#A80036;stroke-width:1.5;" width="131" x="579.5" y="66.5"/><ellipse cx="602.6" cy="82.5" fill="#EB937F" rx="11" ry="11" style="stroke:#A80036;stroke-width:1.0;"/><path d="M606.725,89 L598.9906,89 L598.9906,76 L606.725,76 L606.725,78.2656 L601.4438,78.2656 L601.4438,81 L606.225,81 L606.225,83.2656 L601.4438,83.2656 L601.4438,86.7344 L606.725,86.7344 L606.725,89 Z " fill="#000000"/><text fill="#000000" font-family="sans-serif" font-size="12" lengthAdjust="spacing" textLength="81" x="618.4" y="86.6543">FlowDirection</text><line style="stroke:#A80036;stroke-width:1.5;" x1="580.5" x2="709.5" y1="98.5" y2="98.5"/><text fill="#000000" font-family="sans-serif" font-size="11" lengthAdjust="spacing" textLength="104" x="585.5" y="112.725">CREATE = 'create'</text><text fill="#000000" font-family="sans-serif" font-size="11" lengthAdjust="spacing" textLength="119" x="585.5" y="125.5478">DESTROY = 'destroy'</text><line style="stroke:#A80036;stroke-width:1.5;" x1="580.5" x2="709.5" y1="132.1458" y2="132.1458"/><!--MD5=[80f5ea28014179df447d8c1222e0b7e6]
class app_flow_d6caefff--><rect codeLine="11" fill="#FEFECE" filter="url(#f1vys5zcwzpwwf)" height="189.0516" id="app_flow_d6caefff" style="stroke:#A80036;stroke-width:1.5;" width="307" x="277.5" y="226"/><ellipse cx="401.25" cy="242" fill="#A9DCDF" rx="11" ry="11" style="stroke:#A80036;stroke-width:1.0;"/><path d="M401.375,237.3125 L400.2188,242.6406 L402.5313,242.6406 L401.375,237.3125 Z M399.875,234.75 L402.875,234.75 L406.2188,247.75 L403.7656,247.75 L403,244.75 L399.7188,244.75 L398.9688,247.75 L396.5313,247.75 L399.875,234.75 Z " fill="#000000"/><text fill="#000000" font-family="sans-serif" font-size="12" font-style="italic" lengthAdjust="spacing" textLength="51" x="421.75" y="246.1543">AppFlow</text><line style="stroke:#A80036;stroke-width:1.5;" x1="278.5" x2="583.5" y1="258" y2="258"/><polygon fill="none" points="288.5,264,292.5,268,288.5,272,284.5,268" style="stroke:#B38D22;stroke-width:1.0;"/><text fill="#000000" font-family="sans-serif" font-size="11" lengthAdjust="spacing" textLength="100" x="297.5" y="272.225">_flowList: FlowList</text><polygon fill="none" points="288.5,276.8229,292.5,280.8229,288.5,284.8229,284.5,280.8229" style="stroke:#B38D22;stroke-width:1.0;"/><text fill="#000000" font-family="sans-serif" font-size="11" lengthAdjust="spacing" textLength="204" x="297.5" y="285.0478">_topLevelReversedFlowList: FlowList</text><ellipse cx="288.5" cy="294.6458" rx="3" ry="3" style="stroke:#038048;stroke-width:1.0;fill:none;"/><text fill="#000000" font-family="sans-serif" font-size="11" lengthAdjust="spacing" textLength="132" x="297.5" y="297.8707">create: Promise&lt;void&gt;</text><ellipse cx="288.5" cy="307.4686" rx="3" ry="3" style="stroke:#038048;stroke-width:1.0;fill:none;"/><text fill="#000000" font-family="sans-serif" font-size="11" lengthAdjust="spacing" textLength="139" x="297.5" y="310.6936">destroy: Promise&lt;void&gt;</text><line style="stroke:#A80036;stroke-width:1.5;" x1="278.5" x2="583.5" y1="317.2915" y2="317.2915"/><ellipse cx="288.5" cy="328.2915" fill="#84BE84" rx="3" ry="3" style="stroke:#038048;stroke-width:1.0;"/><text fill="#000000" font-family="sans-serif" font-size="11" lengthAdjust="spacing" textLength="162" x="297.5" y="331.5165">DeepExecFlowList(params: {</text><text fill="#000000" font-family="sans-serif" font-size="11" lengthAdjust="spacing" textLength="98" x="301.5" y="344.3393">flowList: FlowList;</text><text fill="#000000" font-family="sans-serif" font-size="11" lengthAdjust="spacing" textLength="132" x="301.5" y="357.1622">direction: FlowDirection</text><text fill="#000000" font-family="sans-serif" font-size="11" lengthAdjust="spacing" textLength="107" x="297.5" y="369.9851">}): Promise&lt;void&gt;</text><ellipse cx="288.5" cy="379.583" fill="#84BE84" rx="3" ry="3" style="stroke:#038048;stroke-width:1.0;"/><text fill="#000000" font-family="sans-serif" font-size="11" lengthAdjust="spacing" textLength="240" x="297.5" y="382.808">ExecSyncFlowList(lifeCycleList: LifeCycle[],</text><text fill="#000000" font-family="sans-serif" font-size="11" lengthAdjust="spacing" textLength="277" x="301.5" y="395.6308">createOrDestroy: FlowDirection): Promise&lt;void&gt;</text><polygon fill="#FFFF44" points="288.5,400.2288,292.5,404.2288,288.5,408.2288,284.5,404.2288" style="stroke:#B38D22;stroke-width:1.0;"/><text fill="#000000" font-family="sans-serif" font-size="11" lengthAdjust="spacing" textLength="161" x="297.5" y="408.4537">constructor(...args: FlowList)</text><!--MD5=[15bf7a2118328341b3c43dabfa36c980]
class app_starter_status_e965a85a--><rect codeLine="20" fill="#FEFECE" filter="url(#f1vys5zcwzpwwf)" height="73.6458" id="app_starter_status_e965a85a" style="stroke:#A80036;stroke-width:1.5;" width="137" x="637.5" y="283.5"/><ellipse cx="652.5" cy="299.5" fill="#EB937F" rx="11" ry="11" style="stroke:#A80036;stroke-width:1.0;"/><path d="M656.625,306 L648.8906,306 L648.8906,293 L656.625,293 L656.625,295.2656 L651.3438,295.2656 L651.3438,298 L656.125,298 L656.125,300.2656 L651.3438,300.2656 L651.3438,303.7344 L656.625,303.7344 L656.625,306 Z " fill="#000000"/><text fill="#000000" font-family="sans-serif" font-size="12" lengthAdjust="spacing" textLength="105" x="666.5" y="303.6543">AppStarterStatus</text><line style="stroke:#A80036;stroke-width:1.5;" x1="638.5" x2="773.5" y1="315.5" y2="315.5"/><text fill="#000000" font-family="sans-serif" font-size="11" lengthAdjust="spacing" textLength="115" x="643.5" y="329.725">STARTED = 'started'</text><text fill="#000000" font-family="sans-serif" font-size="11" lengthAdjust="spacing" textLength="120" x="643.5" y="342.5478">STOPPED = 'stopped'</text><line style="stroke:#A80036;stroke-width:1.5;" x1="638.5" x2="773.5" y1="349.1458" y2="349.1458"/><!--MD5=[30f5214e3d94d1ddd0dcdee8a74122fc]
entity app_flow_object_type_e965a85a--><rect fill="#FEFECE" filter="url(#f1vys5zcwzpwwf)" height="46.5938" style="stroke:#000000;stroke-width:1.5;" width="161" x="597.5" y="527"/><text fill="#000000" font-family="sans-serif" font-size="14" lengthAdjust="spacing" textLength="141" x="607.5" y="542.9951">AppFlowObjectType</text><line style="stroke:#000000;stroke-width:1.0;" x1="598.5" x2="757.5" y1="546.2969" y2="546.2969"/><text fill="#000000" font-family="sans-serif" font-size="14" lengthAdjust="spacing" textLength="87" x="607.5" y="563.292">{ new (): T }</text><!--MD5=[e812e902a5ae72f42e42cfe00088012f]
class app_starter_e965a85a--><rect codeLine="29" fill="#FEFECE" filter="url(#f1vys5zcwzpwwf)" height="150.583" id="app_starter_e965a85a" style="stroke:#A80036;stroke-width:1.5;" width="233" x="329.5" y="475"/><ellipse cx="408.75" cy="491" fill="#ADD1B2" rx="11" ry="11" style="stroke:#A80036;stroke-width:1.0;"/><path d="M411.2344,496.875 Q410.6563,497.1875 410.0156,497.3438 Q409.375,497.5 408.6719,497.5 Q406.1563,497.5 404.8281,495.8281 Q403.5156,494.1563 403.5156,491 Q403.5156,487.8438 404.8281,486.1719 Q406.1563,484.5 408.6719,484.5 Q409.375,484.5 410.0156,484.6563 Q410.6719,484.8125 411.2344,485.125 L411.2344,487.9219 Q410.5938,487.3438 410,487.0781 Q409.4063,486.8125 408.7813,486.8125 Q407.4375,486.8125 406.75,487.875 Q406.0625,488.9219 406.0625,491 Q406.0625,493.0781 406.75,494.1406 Q407.4375,495.1875 408.7813,495.1875 Q409.4063,495.1875 410,494.9219 Q410.5938,494.6563 411.2344,494.0781 L411.2344,496.875 Z " fill="#000000"/><text fill="#000000" font-family="sans-serif" font-size="12" lengthAdjust="spacing" textLength="66" x="429.25" y="495.1543">AppStarter</text><line style="stroke:#A80036;stroke-width:1.5;" x1="330.5" x2="561.5" y1="507" y2="507"/><polygon fill="none" points="340.5,513,344.5,517,340.5,521,336.5,517" style="stroke:#B38D22;stroke-width:1.0;"/><text fill="#000000" font-family="sans-serif" font-size="11" lengthAdjust="spacing" textLength="84" x="349.5" y="521.225">_flow: AppFlow</text><polygon fill="none" points="340.5,525.8229,344.5,529.8229,340.5,533.8229,336.5,529.8229" style="stroke:#B38D22;stroke-width:1.0;"/><text fill="#000000" font-family="sans-serif" font-size="11" lengthAdjust="spacing" textLength="173" x="349.5" y="534.0478">_gracefulStop: Promise&lt;void&gt;</text><polygon fill="none" points="340.5,538.6458,344.5,542.6458,340.5,546.6458,336.5,542.6458" style="stroke:#B38D22;stroke-width:1.0;"/><text fill="#000000" font-family="sans-serif" font-size="11" lengthAdjust="spacing" textLength="119" x="349.5" y="546.8707">_registerOnExit: void</text><polygon fill="none" points="340.5,551.4686,344.5,555.4686,340.5,559.4686,336.5,555.4686" style="stroke:#B38D22;stroke-width:1.0;"/><text fill="#000000" font-family="sans-serif" font-size="11" lengthAdjust="spacing" textLength="144" x="349.5" y="559.6936">_status: AppStarterStatus</text><ellipse cx="340.5" cy="569.2915" rx="3" ry="3" style="stroke:#038048;stroke-width:1.0;fill:none;"/><text fill="#000000" font-family="sans-serif" font-size="11" lengthAdjust="spacing" textLength="122" x="349.5" y="572.5165">start: Promise&lt;void&gt;</text><ellipse cx="340.5" cy="582.1144" rx="3" ry="3" style="stroke:#038048;stroke-width:1.0;fill:none;"/><text fill="#000000" font-family="sans-serif" font-size="11" lengthAdjust="spacing" textLength="120" x="349.5" y="585.3393">stop: Promise&lt;void&gt;</text><line style="stroke:#A80036;stroke-width:1.5;" x1="330.5" x2="561.5" y1="591.9373" y2="591.9373"/><polygon fill="#FFFF44" points="340.5,597.9373,344.5,601.9373,340.5,605.9373,336.5,601.9373" style="stroke:#B38D22;stroke-width:1.0;"/><text fill="#000000" font-family="sans-serif" font-size="11" lengthAdjust="spacing" textLength="207" x="349.5" y="606.1622">_onError(err: Error): Promise&lt;void&gt;</text><text fill="#000000" font-family="sans-serif" font-size="11" lengthAdjust="spacing" textLength="173" x="349.5" y="618.9851">constructor(appFlow: AppFlow)</text><rect fill="#FEFECE" filter="url(#f1vys5zcwzpwwf)" height="33.9688" style="stroke:#A80036;stroke-width:1.5;" width="124" x="500" y="686"/><text fill="#000000" font-family="sans-serif" font-size="12" lengthAdjust="spacing" textLength="110" x="507" y="699.1387">appStarterFactory</text><line style="stroke:#A80036;stroke-width:1.5;" x1="501" x2="623" y1="703.9688" y2="703.9688"/><!--MD5=[a42c140d5bc5e1da3457fea9856ff216]
class life_cycle_2ee6f65a--><rect codeLine="41" fill="#FEFECE" filter="url(#f1vys5zcwzpwwf)" height="124.9373" id="life_cycle_2ee6f65a" style="stroke:#A80036;stroke-width:1.5;" width="243" x="301.5" y="41"/><ellipse cx="392.25" cy="57" fill="#A9DCDF" rx="11" ry="11" style="stroke:#A80036;stroke-width:1.0;"/><path d="M392.375,52.3125 L391.2188,57.6406 L393.5313,57.6406 L392.375,52.3125 Z M390.875,49.75 L393.875,49.75 L397.2188,62.75 L394.7656,62.75 L394,59.75 L390.7188,59.75 L389.9688,62.75 L387.5313,62.75 L390.875,49.75 Z " fill="#000000"/><text fill="#000000" font-family="sans-serif" font-size="12" font-style="italic" lengthAdjust="spacing" textLength="53" x="412.75" y="61.1543">LifeCycle</text><line style="stroke:#A80036;stroke-width:1.5;" x1="302.5" x2="543.5" y1="73" y2="73"/><polygon fill="none" points="312.5,79,316.5,83,312.5,87,308.5,83" style="stroke:#B38D22;stroke-width:1.0;"/><text fill="#000000" font-family="sans-serif" font-size="11" font-style="italic" lengthAdjust="spacing" textLength="134" x="321.5" y="87.225">_createFn: Promise&lt;T&gt;</text><polygon fill="none" points="312.5,91.8229,316.5,95.8229,312.5,99.8229,308.5,95.8229" style="stroke:#B38D22;stroke-width:1.0;"/><text fill="#000000" font-family="sans-serif" font-size="11" font-style="italic" lengthAdjust="spacing" textLength="141" x="321.5" y="100.0478">_destroyFn: Promise&lt;T&gt;</text><ellipse cx="312.5" cy="109.6458" rx="3" ry="3" style="stroke:#038048;stroke-width:1.0;fill:none;"/><text fill="#000000" font-family="sans-serif" font-size="11" lengthAdjust="spacing" textLength="115" x="321.5" y="112.8707">create: Promise&lt;T&gt;</text><ellipse cx="312.5" cy="122.4686" rx="3" ry="3" style="stroke:#038048;stroke-width:1.0;fill:none;"/><text fill="#000000" font-family="sans-serif" font-size="11" lengthAdjust="spacing" textLength="122" x="321.5" y="125.6936">destroy: Promise&lt;T&gt;</text><ellipse cx="312.5" cy="135.2915" rx="3" ry="3" style="stroke:#038048;stroke-width:1.0;fill:none;"/><text fill="#000000" font-family="sans-serif" font-size="11" lengthAdjust="spacing" textLength="72" x="321.5" y="138.5165">name: string</text><line style="stroke:#A80036;stroke-width:1.5;" x1="302.5" x2="543.5" y1="145.1144" y2="145.1144"/><polygon fill="#FFFF44" points="312.5,151.1144,316.5,155.1144,312.5,159.1144,308.5,155.1144" style="stroke:#B38D22;stroke-width:1.0;"/><text fill="#000000" font-family="sans-serif" font-size="11" lengthAdjust="spacing" textLength="217" x="321.5" y="159.3393">constructor(params: { name: string })</text><!--MD5=[1e5dfc308a734707ee9723f9bc8cc17a]
class app_flow_10177909--><rect codeLine="50" fill="#FEFECE" filter="url(#f1vys5zcwzpwwf)" height="112.1144" id="app_flow_10177909" style="stroke:#A80036;stroke-width:1.5;" width="187" x="55.5" y="264.5"/><ellipse cx="119.25" cy="280.5" fill="#ADD1B2" rx="11" ry="11" style="stroke:#A80036;stroke-width:1.0;"/><path d="M121.7344,286.375 Q121.1563,286.6875 120.5156,286.8438 Q119.875,287 119.1719,287 Q116.6563,287 115.3281,285.3281 Q114.0156,283.6563 114.0156,280.5 Q114.0156,277.3438 115.3281,275.6719 Q116.6563,274 119.1719,274 Q119.875,274 120.5156,274.1563 Q121.1719,274.3125 121.7344,274.625 L121.7344,277.4219 Q121.0938,276.8438 120.5,276.5781 Q119.9063,276.3125 119.2813,276.3125 Q117.9375,276.3125 117.25,277.375 Q116.5625,278.4219 116.5625,280.5 Q116.5625,282.5781 117.25,283.6406 Q117.9375,284.6875 119.2813,284.6875 Q119.9063,284.6875 120.5,284.4219 Q121.0938,284.1563 121.7344,283.5781 L121.7344,286.375 Z " fill="#000000"/><text fill="#000000" font-family="sans-serif" font-size="12" lengthAdjust="spacing" textLength="51" x="139.75" y="284.6543">AppFlow</text><line style="stroke:#A80036;stroke-width:1.5;" x1="56.5" x2="241.5" y1="296.5" y2="296.5"/><ellipse cx="66.5" cy="307.5" rx="3" ry="3" style="stroke:#038048;stroke-width:1.0;fill:none;"/><text fill="#000000" font-family="sans-serif" font-size="11" lengthAdjust="spacing" textLength="96" x="75.5" y="310.725">FlowList: FlowList</text><polygon fill="none" points="66.5,315.3229,70.5,319.3229,66.5,323.3229,62.5,319.3229" style="stroke:#B38D22;stroke-width:1.0;"/><text fill="#000000" font-family="sans-serif" font-size="11" lengthAdjust="spacing" textLength="100" x="75.5" y="323.5478">_flowList: FlowList</text><ellipse cx="66.5" cy="333.1458" rx="3" ry="3" style="stroke:#038048;stroke-width:1.0;fill:none;"/><text fill="#000000" font-family="sans-serif" font-size="11" lengthAdjust="spacing" textLength="36" x="75.5" y="336.3707">create</text><ellipse cx="66.5" cy="345.9686" rx="3" ry="3" style="stroke:#038048;stroke-width:1.0;fill:none;"/><text fill="#000000" font-family="sans-serif" font-size="11" lengthAdjust="spacing" textLength="43" x="75.5" y="349.1936">destroy</text><line style="stroke:#A80036;stroke-width:1.5;" x1="56.5" x2="241.5" y1="355.7915" y2="355.7915"/><polygon fill="#FFFF44" points="66.5,361.7915,70.5,365.7915,66.5,369.7915,62.5,365.7915" style="stroke:#B38D22;stroke-width:1.0;"/><text fill="#000000" font-family="sans-serif" font-size="11" lengthAdjust="spacing" textLength="161" x="75.5" y="370.0165">constructor(...args: FlowList)</text><!--MD5=[dd4a832b9cf64d917640e4dd9142f57d]
reverse link flow_list_d6caefff to app_flow_10177909--><path codeLine="59" d="M155.1,132.24 C154.01,165.55 152.17,222.2 150.79,264.49 " fill="none" id="flow_list_d6caefff-backto-app_flow_10177909" style="stroke:#A80036;stroke-width:1.0;"/><polygon fill="#A80036" points="155.26,127.1,150.954,135.9577,155.0887,132.0971,158.9493,136.2318,155.26,127.1" style="stroke:#A80036;stroke-width:1.0;"/><!--MD5=[44a80b6860556db25bba0c9c792213c7]
reverse link life_cycle_2ee6f65a to app_flow_d6caefff--><path codeLine="60" d="M425.49,171.4 C426.13,188.63 426.83,207.49 427.51,225.81 " fill="none" id="life_cycle_2ee6f65a-backto-app_flow_d6caefff" style="stroke:#A80036;stroke-width:1.0;"/><polygon fill="#A80036" points="425.29,166.11,421.6268,175.2523,425.4756,171.1066,429.6213,174.9553,425.29,166.11" style="stroke:#A80036;stroke-width:1.0;"/><!--MD5=[0caa504673193a32c7f5392da371156c]
reverse link flow_list_d6caefff to app_flow_d6caefff--><path codeLine="61" d="M188.91,130.23 C219.35,154.03 266.5,190.89 311.14,225.79 " fill="none" id="flow_list_d6caefff-backto-app_flow_d6caefff" style="stroke:#A80036;stroke-width:1.0;"/><polygon fill="#A80036" points="184.91,127.1,189.5323,135.7968,188.8475,130.1815,194.4628,129.4968,184.91,127.1" style="stroke:#A80036;stroke-width:1.0;"/><!--MD5=[4eba5bc460bbfd6bb872c29ead701bf6]
reverse link flow_direction_d6caefff to app_flow_d6caefff--><path codeLine="62" d="M605.09,144.59 C582.27,167.53 552.61,197.32 524.26,225.8 " fill="none" id="flow_direction_d6caefff-backto-app_flow_d6caefff" style="stroke:#A80036;stroke-width:1.0;"/><polygon fill="#A80036" points="608.7,140.97,599.5148,144.5241,605.1716,144.5127,605.183,150.1695,608.7,140.97" style="stroke:#A80036;stroke-width:1.0;"/><!--MD5=[510b105e107552d4308c24e7b7d3ac35]
reverse link app_flow_d6caefff to app_flow_d6caefff--><path codeLine="63" d="M590.04,286.26 C607.92,292.7 619.5,304.11 619.5,320.5 C619.5,338.43 605.65,350.41 584.84,356.43 " fill="none" id="app_flow_d6caefff-backto-app_flow_d6caefff" style="stroke:#A80036;stroke-width:1.0;"/><polygon fill="#A80036" points="584.84,284.57,592.1849,291.1315,589.6003,286.0996,594.6322,283.515,584.84,284.57" style="stroke:#A80036;stroke-width:1.0;"/><!--MD5=[c0c96d52e3ff4931685ab02949968e02]
reverse link app_flow_d6caefff to app_starter_e965a85a--><path codeLine="64" d="M437.5,420.37 C438.71,438.67 439.95,457.51 441.09,474.94 " fill="none" id="app_flow_d6caefff-backto-app_starter_e965a85a" style="stroke:#A80036;stroke-width:1.0;"/><polygon fill="#A80036" points="437.17,415.22,433.7705,424.4636,437.4988,420.2092,441.7532,423.9375,437.17,415.22" style="stroke:#A80036;stroke-width:1.0;"/><!--MD5=[138d277b3cdafc5a46bac0683966f049]
reverse link app_starter_status_e965a85a to app_starter_e965a85a--><path codeLine="65" d="M671.69,361.75 C656.48,378.8 637.98,398.5 620,415 C597.78,435.4 572.7,456.01 548.65,474.77 " fill="none" id="app_starter_status_e965a85a-backto-app_starter_e965a85a" style="stroke:#A80036;stroke-width:1.0;"/><polygon fill="#A80036" points="675.08,357.92,666.1111,361.9892,671.7582,361.657,672.0904,367.3041,675.08,357.92" style="stroke:#A80036;stroke-width:1.0;"/><!--MD5=[e4a61df3d2162d6d9163b7c6d06c04ad]
reverse link app_flow_object_type_e965a85a to app_starter_factory_e965a85a--><path codeLine="66" d="M657.49,578.11 C633.45,609.3 594.37,660 574.48,685.81 " fill="none" id="app_flow_object_type_e965a85a-backto-app_starter_factory_e965a85a" style="stroke:#A80036;stroke-width:1.0;"/><polygon fill="#A80036" points="660.63,574.03,651.9623,578.7067,657.5732,577.9867,658.2931,583.5976,660.63,574.03" style="stroke:#A80036;stroke-width:1.0;"/><!--MD5=[bdf259345dbf3e31d1362e4e060868cc]
reverse link app_starter_e965a85a to app_starter_factory_e965a85a--><path codeLine="67" d="M506.9,630.51 C523.09,651.51 538.97,672.13 549.5,685.78 " fill="none" id="app_starter_e965a85a-backto-app_starter_factory_e965a85a" style="stroke:#A80036;stroke-width:1.0;"/><polygon fill="#A80036" points="503.66,626.31,505.9969,635.8776,506.7168,630.2667,512.3277,630.9867,503.66,626.31" style="stroke:#A80036;stroke-width:1.0;"/><!--MD5=[a99a180552155bf3281da500fd088e91]
@startuml
    folder "src" as src_b874d07 {
      card flow_list_d6caefff [
        FlowList
        - - -
        (LifeCycle | LifeCycle[])[]
      ]
      enum "FlowDirection" as flow_direction_d6caefff {
        CREATE = 'create'
        DESTROY = 'destroy'
      }
      abstract "AppFlow" as app_flow_d6caefff {
        + DeepExecFlowList(params: {\n flowList: FlowList;\n direction: FlowDirection \n}): Promise<void>
        + ExecSyncFlowList(lifeCycleList: LifeCycle[],\n createOrDestroy: FlowDirection): Promise<void>
        # _flowList: FlowList
        # _topLevelReversedFlowList: FlowList
        # constructor(...args: FlowList)
        + create: Promise<void>
        + destroy: Promise<void>
      }
      enum "AppStarterStatus" as app_starter_status_e965a85a {
        STARTED = 'started'
        STOPPED = 'stopped'
      }
      card app_flow_object_type_e965a85a [
        AppFlowObjectType
        - - -
        { new (): T }
      ]
      class "AppStarter" as app_starter_e965a85a {
        # _flow: AppFlow
        # _gracefulStop: Promise<void>
        # _onError(err: Error): Promise<void>
        # _registerOnExit: void
        # _status: AppStarterStatus
        constructor(appFlow: AppFlow)
        + start: Promise<void>
        + stop: Promise<void>
      }
      object "appStarterFactory" as app_starter_factory_e965a85a {
      }
      abstract "LifeCycle" as life_cycle_2ee6f65a {
        # {abstract} _createFn: Promise<T>
        # {abstract} _destroyFn: Promise<T>
        # constructor(params: { name: string })
        + create: Promise<T>
        + destroy: Promise<T>
        + name: string
      }
      folder "__mocks__" as mocks_c1f08231 {
        class "AppFlow" as app_flow_10177909 {
          + FlowList: FlowList
          # _flowList: FlowList
          # constructor(...args: FlowList)
          + create
          + destroy
        }
      }
    }
  app_flow_10177909 -up-> flow_list_d6caefff
  app_flow_d6caefff -up-> life_cycle_2ee6f65a
  app_flow_d6caefff -up-> flow_list_d6caefff
  app_flow_d6caefff -up-> flow_direction_d6caefff
  app_flow_d6caefff -up-> app_flow_d6caefff
  app_starter_e965a85a -up-> app_flow_d6caefff
  app_starter_e965a85a -up-> app_starter_status_e965a85a
  app_starter_factory_e965a85a -up-> app_flow_object_type_e965a85a
  app_starter_factory_e965a85a -up-> app_starter_e965a85a
@enduml

PlantUML version 1.2021.11(Sat Oct 02 15:26:11 CEST 2021)
(GPL source distribution)
Java Runtime: OpenJDK Runtime Environment
JVM: OpenJDK 64-Bit Server VM
Default Encoding: UTF-8
Language: en
Country: US
--></g></svg>